<?xml version="1.0" standalone="no"?>
<!DOCTYPE svg PUBLIC "-//W3C//DTD SVG 20010904//EN"
 "http://www.w3.org/TR/2001/REC-SVG-20010904/DTD/svg10.dtd">
<svg version="1.0" xmlns="http://www.w3.org/2000/svg"
 width="1024.000000pt" height="1024.000000pt" viewBox="0 0 1024.000000 1024.000000"
 preserveAspectRatio="xMidYMid meet">
<metadata>
Created by potrace 1.14, written by Peter Selinger 2001-2017
</metadata>
<g transform="translate(0.000000,1024.000000) scale(0.100000,-0.100000)"
fill="#000000" stroke="none">
<path d="M0 5120 l0 -5120 5120 0 5120 0 0 5120 0 5120 -5120 0 -5120 0 0
-5120z m5593 3295 c134 -28 230 -88 268 -170 18 -39 19 -132 19 -2770 0 -2369
-2 -2742 -15 -2822 -102 -628 -643 -1012 -1428 -1013 -262 0 -456 49 -561 141
-56 50 -70 93 -56 169 18 94 69 160 139 180 45 13 67 -5 126 -104 65 -109 122
-166 203 -204 52 -25 67 -27 177 -26 100 1 133 6 200 27 230 75 370 254 437
557 l23 105 0 1885 0 1885 -23 32 c-44 62 -147 67 -319 17 -181 -52 -352 -151
-452 -260 -81 -88 -104 -142 -109 -249 -3 -79 -1 -95 20 -135 31 -60 77 -90
140 -90 53 0 106 24 192 85 194 139 350 -192 191 -407 -142 -192 -489 -204
-671 -21 -95 95 -135 205 -135 369 0 115 18 206 60 298 136 301 458 514 921
611 134 28 166 42 180 81 6 15 10 323 10 774 0 826 1 807 -61 844 -46 27 -162
23 -272 -9 -189 -55 -335 -134 -442 -240 -93 -91 -128 -162 -134 -264 -4 -89
10 -140 50 -186 63 -71 144 -67 263 12 45 30 95 57 111 59 48 8 114 -32 150
-90 28 -46 30 -56 30 -145 0 -77 -4 -105 -22 -143 -113 -246 -501 -291 -709
-83 -93 93 -136 209 -136 364 1 222 81 401 252 565 233 223 608 363 1025 384
162 9 270 4 358 -13z"/>
</g>
</svg>
