<?xml version="1.0" standalone="no"?>
<!DOCTYPE svg PUBLIC "-//W3C//DTD SVG 20010904//EN"
 "http://www.w3.org/TR/2001/REC-SVG-20010904/DTD/svg10.dtd">
<svg version="1.0" xmlns="http://www.w3.org/2000/svg"
 width="1024.000000pt" height="1024.000000pt" viewBox="0 0 1024.000000 1024.000000"
 preserveAspectRatio="xMidYMid meet">
<metadata>
Created by potrace 1.14, written by Peter Selinger 2001-2017
</metadata>
<g transform="translate(0.000000,1024.000000) scale(0.100000,-0.100000)"
fill="#000000" stroke="none">
<path d="M0 5120 l0 -5120 5120 0 5120 0 0 5120 0 5120 -5120 0 -5120 0 0
-5120z m5630 4340 c1454 -100 2416 -544 2988 -1378 111 -162 294 -503 278
-519 -2 -2 9 -36 25 -74 77 -188 151 -460 193 -709 61 -362 61 -352 61 -1480
0 -1127 1 -1115 -60 -1485 -134 -812 -509 -1563 -1050 -2100 -644 -641 -1516
-1014 -2535 -1085 -290 -20 -757 -9 -1060 26 -561 64 -826 237 -909 592 -45
195 -44 156 -50 2167 l-6 1920 -23 47 c-30 60 -79 103 -161 142 -59 27 -78 31
-183 34 -483 17 -1041 -219 -1304 -552 -136 -171 -195 -331 -197 -526 -1 -169
34 -280 117 -377 49 -56 109 -83 198 -90 139 -10 217 19 413 157 136 95 130
92 179 101 88 16 217 -31 289 -105 146 -149 188 -423 102 -669 -36 -105 -82
-173 -180 -272 -78 -79 -104 -98 -195 -143 -288 -141 -638 -144 -929 -6 -123
58 -202 115 -297 217 -89 96 -152 198 -201 328 -51 135 -64 208 -70 389 -11
323 39 575 161 825 266 542 862 923 1750 1120 120 26 430 81 496 87 l35 3 3
1300 c2 953 0 1311 -9 1340 -26 91 -106 161 -223 197 -62 19 -85 20 -235 15
-659 -24 -1261 -413 -1381 -891 -25 -99 -27 -274 -5 -361 33 -126 106 -228
192 -267 92 -41 239 -33 342 20 30 15 111 66 180 115 134 94 179 113 250 102
158 -24 272 -128 333 -303 20 -59 23 -85 22 -217 0 -135 -3 -158 -27 -230 -97
-290 -340 -481 -679 -535 -114 -18 -351 -8 -453 20 -394 107 -639 375 -736
805 -23 100 -17 452 10 599 50 278 159 516 327 716 316 378 778 634 1442 800
438 110 1081 181 1847 204 190 6 763 -3 925 -14z"/>
<path d="M5629 9030 c-174 -28 -308 -111 -368 -229 -34 -65 -61 -179 -71 -301
-7 -77 -10 -1246 -8 -3525 3 -3181 5 -3414 21 -3472 49 -182 146 -277 323
-319 94 -22 360 -14 489 16 311 70 528 194 716 406 390 441 617 1216 690 2359
14 222 13 2168 -1 2425 -44 783 -202 1433 -455 1882 -76 134 -160 244 -279
366 -263 271 -518 388 -861 397 -77 2 -165 0 -196 -5z"/>
</g>
</svg>
