<?xml version="1.0" encoding="utf-8"?>
<!-- Generator: Adobe Illustrator 19.0.0, SVG Export Plug-In . SVG Version: 6.00 Build 0)  -->
<svg version="1.1" id="Layer_1" xmlns="http://www.w3.org/2000/svg" xmlns:xlink="http://www.w3.org/1999/xlink" x="0px" y="0px"
	 viewBox="0 0 250 50" enable-background="new 0 0 250 50" xml:space="preserve">
<g>
	<g>
		<path id="XMLID_25_" d="M97,46.7c-0.2,0.1-0.3,0.1-0.5,0.2c-0.2,0-0.4,0.1-0.6,0.1c-1.1,0-2.2-0.3-3.5-1c-1.2-0.7-2.5-1.8-3.8-3.3
			s-2.7-3.3-4.1-5.6s-2.9-5-4.4-8.2c1.1-0.6,2-1.2,2.8-1.9c0.7-0.7,1.3-1.4,1.8-2.1c0.4-0.7,0.7-1.5,0.9-2.2
			c0.2-0.8,0.3-1.5,0.3-2.2c0-0.4-0.1-0.8-0.2-1.4c-0.2-0.5-0.4-1.1-0.8-1.6s-0.9-0.9-1.5-1.3s-1.4-0.5-2.3-0.5c-1,0-2,0.2-2.8,0.6
			c-0.9,0.4-1.7,0.9-2.4,1.5c-0.7,0.6-1.4,1.3-2.1,2.1c-0.6,0.8-1.2,1.5-1.8,2.3v-15c0-0.3,0-0.8-0.1-1.2c-0.1-0.5-0.2-0.9-0.5-1.3
			s-0.7-0.7-1.3-1c-0.6-0.3-1.4-0.4-2.4-0.4c-0.7,0-1.3,0.1-1.9,0.2c-0.6,0.1-1.2,0.3-1.7,0.5s-1,0.5-1.5,0.8
			c-0.4,0.3-0.9,0.6-1.2,0.9l0.5,0.6c0.2-0.2,0.4-0.3,0.6-0.4c0.2-0.1,0.4-0.1,0.7-0.1c0.5,0,0.9,0.2,1.1,0.5s0.3,0.7,0.3,1.2v29.4
			c-0.3,0.3-1.3,0.8-1.6,0.8c-0.2,0-0.4,0-0.5-0.1s-0.2-0.2-0.3-0.4s-0.1-0.3-0.1-0.5s0-0.3,0-0.5V19.1c0-0.5-0.1-0.9-0.3-1.3
			S61.4,17,61,16.7c-0.3-0.3-0.8-0.6-1.3-0.7c-0.5-0.2-1.1-0.3-1.8-0.3c-0.8,0-1.5,0.1-2.2,0.4c-0.7,0.2-1.2,0.6-1.8,0.9
			c-0.5,0.4-0.9,0.8-1.3,1.2c-0.4,0.4-0.7,0.8-0.9,1.1l0.6,0.5c0.2-0.2,0.4-0.4,0.7-0.7c0.2-0.2,0.5-0.3,0.8-0.3
			c0.2,0,0.4,0,0.5,0.1s0.2,0.2,0.3,0.4c0.1,0.2,0.1,0.3,0.1,0.5s0,0.3,0,0.5v13.9c-0.1,0.2-0.3,0.4-0.6,0.7s-0.6,0.6-1,1
			c-0.4,0.3-0.8,0.6-1.3,0.8s-0.9,0.4-1.4,0.4c-0.3,0-0.5-0.1-0.7-0.2c-0.2-0.1-0.4-0.3-0.5-0.5S49,36,48.9,35.8
			c-0.1-0.2-0.1-0.5-0.1-0.7v-16c0-0.5-0.1-0.9-0.3-1.3s-0.4-0.8-0.8-1.1c-0.3-0.3-0.8-0.6-1.3-0.7c-0.5-0.2-1.1-0.3-1.8-0.3
			c-0.8,0-1.5,0.1-2.2,0.4c-0.7,0.2-1.2,0.6-1.8,0.9c-0.5,0.4-0.9,0.8-1.3,1.2c-0.1,0.1-0.1,0.1-0.2,0.2c0-0.2,0-0.4,0-0.4
			c0-3.1-0.5-5.7-1.4-7.9s-2.2-3.9-3.9-5.2S30.1,2.6,27.7,2s-5.1-0.9-8-0.9c-2.6,0-5,0.1-7.3,0.4S8.1,2.3,6.4,3S3.3,4.7,2.3,6
			C1.5,7.2,1,8.8,1,10.8c0,0.7,0.1,1.4,0.3,2s0.5,1.2,1,1.6c0.4,0.5,0.9,0.8,1.6,1.1c0.6,0.3,1.3,0.4,2.1,0.4c0.5,0,1-0.1,1.5-0.2
			C8,15.5,8.4,15.3,8.8,15c0.4-0.3,0.7-0.7,1-1.2c0.2-0.5,0.4-1,0.4-1.6c0-0.4-0.1-0.8-0.2-1.1c-0.1-0.3-0.3-0.6-0.5-0.8
			C9.2,10.1,9,10,8.8,9.9C8.6,9.8,8.4,9.7,8.2,9.7S7.8,9.8,7.6,10c-0.2,0.1-0.4,0.3-0.6,0.4c-0.2,0.2-0.4,0.3-0.7,0.4
			C6,10.9,5.7,11,5.3,11c-0.1,0-0.2,0-0.4-0.1c-0.2,0-0.4-0.1-0.5-0.3c-0.2-0.2-0.3-0.4-0.5-0.7C3.8,9.7,3.7,9.3,3.7,8.8
			c0-0.7,0.2-1.4,0.6-2c0.5-0.7,1-1.2,1.7-1.7C6.6,4.7,7.4,4.3,8.2,4s1.7-0.4,2.6-0.4c0.4,0,0.9,0.1,1.2,0.4
			c0.4,0.2,0.6,0.6,0.6,1.1c0,0,0,11.8,0,11.9s-0.1,0.1-0.1,0.1c-2.3,0.3-4.3,0.8-6,1.5s-3.1,1.7-4.1,3c-0.9,1.4-1.4,3-1.4,5
			c0,0.7,0.1,1.4,0.3,2s0.5,1.2,1,1.6c0.4,0.5,0.9,0.8,1.6,1.1c0.6,0.3,1.3,0.4,2.1,0.4c0.5,0,1-0.1,1.5-0.2
			c0.5-0.2,0.9-0.4,1.3-0.7c0.4-0.3,0.7-0.7,1-1.2c0.2-0.5,0.4-1,0.4-1.6c0-0.4-0.1-0.8-0.2-1.1c-0.1-0.3-0.3-0.6-0.5-0.8
			c-0.2-0.2-0.4-0.3-0.6-0.4c-0.2-0.1-0.4-0.1-0.6-0.1c-0.2,0-0.4,0.1-0.6,0.2C7.4,25.9,7.2,26,7,26.2s-0.4,0.3-0.7,0.4
			c-0.3,0.1-0.6,0.2-1,0.2c-0.1,0-0.2,0-0.4-0.1c-0.2,0-0.4-0.1-0.5-0.3c-0.2-0.2-0.3-0.4-0.5-0.7c-0.1-0.3-0.2-0.7-0.2-1.2
			c0-0.7,0.2-1.4,0.6-2s0.9-1.2,1.6-1.6c0.7-0.5,1.4-0.8,2.3-1.1c0.8-0.3,1.7-0.4,2.6-0.4c0.4,0,0.9,0.1,1.2,0.4
			c0.3,0.2,0.4,0.4,0.5,0.7c0,0,0.1,0.2,0.1,0.3c0,0.1,0,16.7,0,16.7c0,1,0.1,1.9,0.3,2.6c0.2,0.7,0.6,1.2,1.1,1.6
			c0.6,0.4,1.4,0.7,2.4,0.9c1.1,0.2,2.5,0.2,4.2,0.2c2.6,0,5.1-0.4,7.3-1.3c2.3-0.8,4.3-2.1,6-3.7c1.7-1.6,3-3.6,4-6
			c1-2.3,1.4-5,1.5-8c0,0,0-2.5,0-4.2c0.2-0.2,0.3-0.4,0.5-0.5c0.2-0.2,0.5-0.3,0.8-0.3c0.2,0,0.4,0,0.5,0.1s0.2,0.2,0.3,0.4
			c0.1,0.2,0.1,0.3,0.1,0.5s0,0.3,0,0.5v14.8c0,0.7,0.1,1.4,0.3,2.1c0.2,0.7,0.5,1.3,0.9,1.9c0.4,0.6,1,1,1.6,1.3
			c0.7,0.3,1.5,0.5,2.4,0.5c0.5,0,1-0.1,1.5-0.2c0.5-0.1,1-0.3,1.4-0.5c0.5-0.2,0.9-0.5,1.3-0.7c0.4-0.3,0.8-0.5,1.2-0.8
			c0.9-0.7,1.7-1.4,2.5-2.3v1.1c0,0.5,0.1,0.9,0.3,1.3c0.2,0.4,0.4,0.8,0.8,1.1c0.4,0.3,0.8,0.6,1.3,0.7s1.1,0.3,1.8,0.3
			c0.8,0,1.6-0.1,2.2-0.4c0.7-0.2,1.2-0.6,1.7-0.9c0.5-0.4,0.9-0.8,1.3-1.2c0.1-0.2,0.3-0.3,0.4-0.5v0.4c0,0.2,0,0.4,0.1,0.7
			s0.2,0.6,0.4,0.8c0.2,0.3,0.6,0.5,1.1,0.7s1.1,0.3,2,0.3c0.8,0,1.5-0.1,2-0.3s0.9-0.4,1.1-0.7c0.3-0.3,0.4-0.5,0.5-0.8
			s0.1-0.5,0.1-0.7V25.9c0.3-0.7,0.7-1.5,1.1-2.3c0.4-0.9,0.9-1.6,1.5-2.4c0.5-0.7,1.1-1.4,1.7-1.9s1.2-0.8,1.8-0.8
			c0.3,0,0.5,0.1,0.7,0.2s0.3,0.2,0.4,0.4c0.1,0.1,0.1,0.3,0.2,0.4c0,0.2,0,0.3,0,0.3c0,0.4-0.1,0.9-0.2,1.6
			c-0.1,0.6-0.4,1.3-0.8,2.1c-0.4,0.8-1.1,1.6-2,2.6s-2.1,2-3.6,3.1c1.1,2.7,2.2,5.1,3.3,7.1c1,2,2.1,3.8,3.1,5.2
			c1,1.5,2,2.7,2.9,3.6c0.9,1,1.9,1.7,2.8,2.3s1.8,1,2.8,1.2c0.9,0.2,1.8,0.3,2.8,0.3s1.9,0,2.7-0.1s1.4-0.2,2-0.4s1.1-0.3,1.5-0.6
			c0.4-0.2,0.9-0.4,1.3-0.7l-0.5-0.8C97.3,46.5,97.2,46.6,97,46.7z M31.1,23.8c0,3.1-0.2,5.7-0.6,7.8s-1,3.8-1.7,5.1
			s-1.6,2.2-2.6,2.7s-2.1,0.8-3.3,0.8c-0.8,0-1.4-0.2-1.8-0.6s-0.6-1-0.6-1.9V6.2c0-1.2,0.2-2,0.7-2.5C21.6,3.2,22.4,3,23.4,3
			c0.4,0,0.9,0.1,1.5,0.2C25.4,3.3,26,3.6,26.6,4s1.1,0.9,1.7,1.6c0.5,0.7,1,1.6,1.5,2.7c0.4,1.1,0.8,2.4,1,4
			c0.3,1.6,0.4,3.5,0.4,5.6C31.1,18,31.1,23.7,31.1,23.8z"/>
		<path id="XMLID_22_" d="M97,46.7c-0.2,0.1-0.3,0.1-0.5,0.2c-0.2,0-0.4,0.1-0.6,0.1c-1.1,0-2.2-0.3-3.5-1c-1.2-0.7-2.5-1.8-3.8-3.3
			s-2.7-3.3-4.1-5.6s-2.9-5-4.4-8.2c1.1-0.6,2-1.2,2.8-1.9c0.7-0.7,1.3-1.4,1.8-2.1c0.4-0.7,0.7-1.5,0.9-2.2
			c0.2-0.8,0.3-1.5,0.3-2.2c0-0.4-0.1-0.8-0.2-1.4c-0.2-0.5-0.4-1.1-0.8-1.6s-0.9-0.9-1.5-1.3s-1.4-0.5-2.3-0.5c-1,0-2,0.2-2.8,0.6
			c-0.9,0.4-1.7,0.9-2.4,1.5c-0.7,0.6-1.4,1.3-2.1,2.1c-0.6,0.8-1.2,1.5-1.8,2.3v-15c0-0.3,0-0.8-0.1-1.2c-0.1-0.5-0.2-0.9-0.5-1.3
			s-0.7-0.7-1.3-1c-0.6-0.3-1.4-0.4-2.4-0.4c-0.7,0-1.3,0.1-1.9,0.2c-0.6,0.1-1.2,0.3-1.7,0.5s-1,0.5-1.5,0.8
			c-0.4,0.3-0.9,0.6-1.2,0.9l0.5,0.6c0.2-0.2,0.4-0.3,0.6-0.4c0.2-0.1,0.4-0.1,0.7-0.1c0.5,0,0.9,0.2,1.1,0.5s0.3,0.7,0.3,1.2v29.4
			c-0.3,0.3-1.3,0.8-1.6,0.8c-0.2,0-0.4,0-0.5-0.1s-0.2-0.2-0.3-0.4s-0.1-0.3-0.1-0.5s0-0.3,0-0.5V19.1c0-0.5-0.1-0.9-0.3-1.3
			S61.4,17,61,16.7c-0.3-0.3-0.8-0.6-1.3-0.7c-0.5-0.2-1.1-0.3-1.8-0.3c-0.8,0-1.5,0.1-2.2,0.4c-0.7,0.2-1.2,0.6-1.8,0.9
			c-0.5,0.4-0.9,0.8-1.3,1.2c-0.4,0.4-0.7,0.8-0.9,1.1l0.6,0.5c0.2-0.2,0.4-0.4,0.7-0.7c0.2-0.2,0.5-0.3,0.8-0.3
			c0.2,0,0.4,0,0.5,0.1s0.2,0.2,0.3,0.4c0.1,0.2,0.1,0.3,0.1,0.5s0,0.3,0,0.5v13.9c-0.1,0.2-0.3,0.4-0.6,0.7s-0.6,0.6-1,1
			c-0.4,0.3-0.8,0.6-1.3,0.8s-0.9,0.4-1.4,0.4c-0.3,0-0.5-0.1-0.7-0.2c-0.2-0.1-0.4-0.3-0.5-0.5S49,36,48.9,35.8
			c-0.1-0.2-0.1-0.5-0.1-0.7v-16c0-0.5-0.1-0.9-0.3-1.3s-0.4-0.8-0.8-1.1c-0.3-0.3-0.8-0.6-1.3-0.7c-0.5-0.2-1.1-0.3-1.8-0.3
			c-0.8,0-1.5,0.1-2.2,0.4c-0.7,0.2-1.2,0.6-1.8,0.9c-0.5,0.4-0.9,0.8-1.3,1.2c-0.1,0.1-0.1,0.1-0.2,0.2c0-0.2,0-0.4,0-0.4
			c0-3.1-0.5-5.7-1.4-7.9s-2.2-3.9-3.9-5.2S30.1,2.6,27.7,2s-5.1-0.9-8-0.9c-2.6,0-5,0.1-7.3,0.4S8.1,2.3,6.4,3S3.3,4.7,2.3,6
			C1.5,7.2,1,8.8,1,10.8c0,0.7,0.1,1.4,0.3,2s0.5,1.2,1,1.6c0.4,0.5,0.9,0.8,1.6,1.1c0.6,0.3,1.3,0.4,2.1,0.4c0.5,0,1-0.1,1.5-0.2
			C8,15.5,8.4,15.3,8.8,15c0.4-0.3,0.7-0.7,1-1.2c0.2-0.5,0.4-1,0.4-1.6c0-0.4-0.1-0.8-0.2-1.1c-0.1-0.3-0.3-0.6-0.5-0.8
			C9.2,10.1,9,10,8.8,9.9C8.6,9.8,8.4,9.7,8.2,9.7S7.8,9.8,7.6,10c-0.2,0.1-0.4,0.3-0.6,0.4c-0.2,0.2-0.4,0.3-0.7,0.4
			C6,10.9,5.7,11,5.3,11c-0.1,0-0.2,0-0.4-0.1c-0.2,0-0.4-0.1-0.5-0.3c-0.2-0.2-0.3-0.4-0.5-0.7C3.8,9.7,3.7,9.3,3.7,8.8
			c0-0.7,0.2-1.4,0.6-2c0.5-0.7,1-1.2,1.7-1.7C6.6,4.7,7.4,4.3,8.2,4s1.7-0.4,2.6-0.4c0.4,0,0.9,0.1,1.2,0.4
			c0.4,0.2,0.6,0.6,0.6,1.1c0,0,0,11.8,0,11.9s-0.1,0.1-0.1,0.1c-2.3,0.3-4.3,0.8-6,1.5s-3.1,1.7-4.1,3c-0.9,1.4-1.4,3-1.4,5
			c0,0.7,0.1,1.4,0.3,2s0.5,1.2,1,1.6c0.4,0.5,0.9,0.8,1.6,1.1c0.6,0.3,1.3,0.4,2.1,0.4c0.5,0,1-0.1,1.5-0.2
			c0.5-0.2,0.9-0.4,1.3-0.7c0.4-0.3,0.7-0.7,1-1.2c0.2-0.5,0.4-1,0.4-1.6c0-0.4-0.1-0.8-0.2-1.1c-0.1-0.3-0.3-0.6-0.5-0.8
			c-0.2-0.2-0.4-0.3-0.6-0.4c-0.2-0.1-0.4-0.1-0.6-0.1c-0.2,0-0.4,0.1-0.6,0.2C7.4,25.9,7.2,26,7,26.2s-0.4,0.3-0.7,0.4
			c-0.3,0.1-0.6,0.2-1,0.2c-0.1,0-0.2,0-0.4-0.1c-0.2,0-0.4-0.1-0.5-0.3c-0.2-0.2-0.3-0.4-0.5-0.7c-0.1-0.3-0.2-0.7-0.2-1.2
			c0-0.7,0.2-1.4,0.6-2s0.9-1.2,1.6-1.6c0.7-0.5,1.4-0.8,2.3-1.1c0.8-0.3,1.7-0.4,2.6-0.4c0.4,0,0.9,0.1,1.2,0.4
			c0.3,0.2,0.4,0.4,0.5,0.7c0,0,0.1,0.2,0.1,0.3c0,0.1,0,16.7,0,16.7c0,1,0.1,1.9,0.3,2.6c0.2,0.7,0.6,1.2,1.1,1.6
			c0.6,0.4,1.4,0.7,2.4,0.9c1.1,0.2,2.5,0.2,4.2,0.2c2.6,0,5.1-0.4,7.3-1.3c2.3-0.8,4.3-2.1,6-3.7c1.7-1.6,3-3.6,4-6
			c1-2.3,1.4-5,1.5-8c0,0,0-2.5,0-4.2c0.2-0.2,0.3-0.4,0.5-0.5c0.2-0.2,0.5-0.3,0.8-0.3c0.2,0,0.4,0,0.5,0.1s0.2,0.2,0.3,0.4
			c0.1,0.2,0.1,0.3,0.1,0.5s0,0.3,0,0.5v14.8c0,0.7,0.1,1.4,0.3,2.1c0.2,0.7,0.5,1.3,0.9,1.9c0.4,0.6,1,1,1.6,1.3
			c0.7,0.3,1.5,0.5,2.4,0.5c0.5,0,1-0.1,1.5-0.2c0.5-0.1,1-0.3,1.4-0.5c0.5-0.2,0.9-0.5,1.3-0.7c0.4-0.3,0.8-0.5,1.2-0.8
			c0.9-0.7,1.7-1.4,2.5-2.3v1.1c0,0.5,0.1,0.9,0.3,1.3c0.2,0.4,0.4,0.8,0.8,1.1c0.4,0.3,0.8,0.6,1.3,0.7s1.1,0.3,1.8,0.3
			c0.8,0,1.6-0.1,2.2-0.4c0.7-0.2,1.2-0.6,1.7-0.9c0.5-0.4,0.9-0.8,1.3-1.2c0.1-0.2,0.3-0.3,0.4-0.5v0.4c0,0.2,0,0.4,0.1,0.7
			s0.2,0.6,0.4,0.8c0.2,0.3,0.6,0.5,1.1,0.7s1.1,0.3,2,0.3c0.8,0,1.5-0.1,2-0.3s0.9-0.4,1.1-0.7c0.3-0.3,0.4-0.5,0.5-0.8
			s0.1-0.5,0.1-0.7V25.9c0.3-0.7,0.7-1.5,1.1-2.3c0.4-0.9,0.9-1.6,1.5-2.4c0.5-0.7,1.1-1.4,1.7-1.9s1.2-0.8,1.8-0.8
			c0.3,0,0.5,0.1,0.7,0.2s0.3,0.2,0.4,0.4c0.1,0.1,0.1,0.3,0.2,0.4c0,0.2,0,0.3,0,0.3c0,0.4-0.1,0.9-0.2,1.6
			c-0.1,0.6-0.4,1.3-0.8,2.1c-0.4,0.8-1.1,1.6-2,2.6s-2.1,2-3.6,3.1c1.1,2.7,2.2,5.1,3.3,7.1c1,2,2.1,3.8,3.1,5.2
			c1,1.5,2,2.7,2.9,3.6c0.9,1,1.9,1.7,2.8,2.3s1.8,1,2.8,1.2c0.9,0.2,1.8,0.3,2.8,0.3s1.9,0,2.7-0.1s1.4-0.2,2-0.4s1.1-0.3,1.5-0.6
			c0.4-0.2,0.9-0.4,1.3-0.7l-0.5-0.8C97.3,46.5,97.2,46.6,97,46.7z M31.1,23.8c0,3.1-0.2,5.7-0.6,7.8s-1,3.8-1.7,5.1
			s-1.6,2.2-2.6,2.7s-2.1,0.8-3.3,0.8c-0.8,0-1.4-0.2-1.8-0.6s-0.6-1-0.6-1.9V6.2c0-1.2,0.2-2,0.7-2.5C21.6,3.2,22.4,3,23.4,3
			c0.4,0,0.9,0.1,1.5,0.2C25.4,3.3,26,3.6,26.6,4s1.1,0.9,1.7,1.6c0.5,0.7,1,1.6,1.5,2.7c0.4,1.1,0.8,2.4,1,4
			c0.3,1.6,0.4,3.5,0.4,5.6C31.1,18,31.1,23.7,31.1,23.8z"/>
	</g>
	<g>
		<path id="XMLID_18_" d="M106.2,35c-0.4,0.3-0.8,0.6-1.1,0.9c-0.4,0.3-0.8,0.6-1.2,0.8c-0.4,0.2-0.9,0.4-1.3,0.5
			c-0.5,0.1-1,0.2-1.5,0.2c-0.8,0-1.5-0.1-2.2-0.4c-0.7-0.3-1.3-0.6-1.8-1s-1-0.9-1.5-1.5c-0.4-0.5-0.8-1.1-1.1-1.7
			c-0.3-0.6-0.5-1.2-0.7-1.8c-0.2-0.6-0.2-1.1-0.2-1.7l9.4-5.6c0.7-0.4,1.3-1,1.7-1.6s0.6-1.3,0.6-2c0-0.6-0.1-1.2-0.4-1.8
			c-0.3-0.6-0.7-1.1-1.3-1.5c-0.6-0.4-1.3-0.8-2.2-1c-0.9-0.3-1.9-0.4-3.1-0.4c-0.9,0-1.8,0.1-2.8,0.4c-1,0.2-1.9,0.6-2.8,1.1
			s-1.8,1.1-2.6,1.8c-0.8,0.7-1.6,1.6-2.2,2.6s-1.1,2.1-1.5,3.3c-0.4,1.2-0.5,2.5-0.5,4c0,2,0.3,3.8,0.9,5.2
			c0.6,1.5,1.4,2.7,2.4,3.7s2.2,1.8,3.5,2.3s2.7,0.8,4,0.8c1.4,0,2.6-0.2,3.7-0.5s2-0.8,2.8-1.3s1.5-1.1,2.1-1.7
			c0.6-0.6,1-1.1,1.4-1.6L106.2,35z M93.3,25.8c0-0.6,0.1-1.3,0.1-2c0.1-0.7,0.2-1.4,0.3-2.1c0.2-0.7,0.4-1.3,0.6-1.8
			c0.3-0.5,0.6-1,1-1.3s0.9-0.5,1.5-0.5c0.4,0,0.8,0.1,1.1,0.4c0.3,0.3,0.6,0.6,0.8,1.1c0.2,0.4,0.4,0.9,0.4,1.4
			c0.1,0.5,0.1,0.9,0.1,1.3s0,0.7-0.1,0.9c0,0.2-0.1,0.5-0.2,0.6c-0.1,0.2-0.2,0.3-0.3,0.4c-0.1,0.1-0.3,0.2-0.5,0.4l-5,2.9
			C93.3,27,93.3,26.5,93.3,25.8z"/>
		<path id="XMLID_15_" d="M106.2,35c-0.4,0.3-0.8,0.6-1.1,0.9c-0.4,0.3-0.8,0.6-1.2,0.8c-0.4,0.2-0.9,0.4-1.3,0.5
			c-0.5,0.1-1,0.2-1.5,0.2c-0.8,0-1.5-0.1-2.2-0.4c-0.7-0.3-1.3-0.6-1.8-1s-1-0.9-1.5-1.5c-0.4-0.5-0.8-1.1-1.1-1.7
			c-0.3-0.6-0.5-1.2-0.7-1.8c-0.2-0.6-0.2-1.1-0.2-1.7l9.4-5.6c0.7-0.4,1.3-1,1.7-1.6s0.6-1.3,0.6-2c0-0.6-0.1-1.2-0.4-1.8
			c-0.3-0.6-0.7-1.1-1.3-1.5c-0.6-0.4-1.3-0.8-2.2-1c-0.9-0.3-1.9-0.4-3.1-0.4c-0.9,0-1.8,0.1-2.8,0.4c-1,0.2-1.9,0.6-2.8,1.1
			s-1.8,1.1-2.6,1.8c-0.8,0.7-1.6,1.6-2.2,2.6s-1.1,2.1-1.5,3.3c-0.4,1.2-0.5,2.5-0.5,4c0,2,0.3,3.8,0.9,5.2
			c0.6,1.5,1.4,2.7,2.4,3.7s2.2,1.8,3.5,2.3s2.7,0.8,4,0.8c1.4,0,2.6-0.2,3.7-0.5s2-0.8,2.8-1.3s1.5-1.1,2.1-1.7
			c0.6-0.6,1-1.1,1.4-1.6L106.2,35z M93.3,25.8c0-0.6,0.1-1.3,0.1-2c0.1-0.7,0.2-1.4,0.3-2.1c0.2-0.7,0.4-1.3,0.6-1.8
			c0.3-0.5,0.6-1,1-1.3s0.9-0.5,1.5-0.5c0.4,0,0.8,0.1,1.1,0.4c0.3,0.3,0.6,0.6,0.8,1.1c0.2,0.4,0.4,0.9,0.4,1.4
			c0.1,0.5,0.1,0.9,0.1,1.3s0,0.7-0.1,0.9c0,0.2-0.1,0.5-0.2,0.6c-0.1,0.2-0.2,0.3-0.3,0.4c-0.1,0.1-0.3,0.2-0.5,0.4l-5,2.9
			C93.3,27,93.3,26.5,93.3,25.8z"/>
	</g>
</g>
<g>
	<g id="XMLID_99_">
		<path id="XMLID_113_" d="M114.4,36.5c1.9,0.5,3.7,0.8,5.5,0.8c3.6,0,6-1.3,6-4.1c0-4.9-11.5-3.2-11.5-10.9c0-4.4,3.9-6.5,8.5-6.5
			c1.5,0,3.4,0.2,5.1,0.7l-0.3,2.8c-1.7-0.6-3.4-0.9-5.1-0.9c-2.5,0-5,1-5,3.8c0,4.9,11.5,3.8,11.5,10.7c0,5.2-4.3,7.1-9.1,7.1
			c-1.9,0-4.3-0.3-5.8-0.7L114.4,36.5z"/>
		<path id="XMLID_111_" d="M138.1,39.4V18.7H131v-2.5h17.3l-0.3,2.5h-6.9v20.7H138.1z"/>
		<path id="XMLID_108_" d="M165.2,39.4l-5.8-9.3h-4.7v9.3h-3V16.2h7c4.9,0,7.8,2.5,7.8,6.6c0,3.5-2.5,5.6-4,6.7l6.4,10L165.2,39.4
			L165.2,39.4z M160.6,27.6c1.6-1.1,2.7-2.6,2.7-4.7c0-2-1.4-4.2-4.4-4.2h-4.1v8.9H160.6z"/>
		<path id="XMLID_106_" d="M170.9,39.4V37h3.8V18.6h-3.8v-2.4h10.8v2.4h-3.9V37h3.9v2.4H170.9z"/>
		<path id="XMLID_104_" d="M201.3,39.4l-9.8-15.9l-2-4.4h-0.2v20.3h-3V16.2h4.2l9.7,15.9l2.1,4.7h0.2V16.2h3v23.3L201.3,39.4
			L201.3,39.4z"/>
		<path id="XMLID_102_" d="M227.5,30.1l2.5-0.4h0.5V38c-3.1,1.2-5.8,1.9-8.8,1.9c-7.9,0-11.1-5.2-11.1-12.3
			c0-7.2,4.7-11.8,12.3-11.8c2.4,0,4.7,0.5,6.2,1.1l-0.5,2.8c-2.3-1-4.5-1.3-6.2-1.3c-4.5,0-8.6,2.8-8.6,9.3c0,6.8,3.5,9.7,8.2,9.7
			c1.7,0,3.6-0.2,5.5-1.1L227.5,30.1L227.5,30.1z"/>
		<path id="XMLID_100_" d="M234.3,36.5c1.9,0.5,3.7,0.8,5.5,0.8c3.6,0,6-1.3,6-4.1c0-4.9-11.5-3.2-11.5-10.9c0-4.4,3.9-6.5,8.5-6.5
			c1.5,0,3.4,0.2,5.1,0.7l-0.3,2.8c-1.7-0.6-3.4-0.9-5.1-0.9c-2.5,0-5,1-5,3.8c0,4.9,11.5,3.8,11.5,10.7c0,5.2-4.3,7.1-9.1,7.1
			c-1.9,0-4.3-0.3-5.8-0.7L234.3,36.5z"/>
	</g>
	<g id="XMLID_83_">
		<path id="XMLID_97_" d="M114.4,36.5c1.9,0.5,3.7,0.8,5.5,0.8c3.6,0,6-1.3,6-4.1c0-4.9-11.5-3.2-11.5-10.9c0-4.4,3.9-6.5,8.5-6.5
			c1.5,0,3.4,0.2,5.1,0.7l-0.3,2.8c-1.7-0.6-3.4-0.9-5.1-0.9c-2.5,0-5,1-5,3.8c0,4.9,11.5,3.8,11.5,10.7c0,5.2-4.3,7.1-9.1,7.1
			c-1.9,0-4.3-0.3-5.8-0.7L114.4,36.5z"/>
		<path id="XMLID_95_" d="M138.1,39.4V18.7H131v-2.5h17.3l-0.3,2.5h-6.9v20.7H138.1z"/>
		<path id="XMLID_92_" d="M165.2,39.4l-5.8-9.3h-4.7v9.3h-3V16.2h7c4.9,0,7.8,2.5,7.8,6.6c0,3.5-2.5,5.6-4,6.7l6.4,10L165.2,39.4
			L165.2,39.4z M160.6,27.6c1.6-1.1,2.7-2.6,2.7-4.7c0-2-1.4-4.2-4.4-4.2h-4.1v8.9H160.6z"/>
		<path id="XMLID_90_" d="M170.9,39.4V37h3.8V18.6h-3.8v-2.4h10.8v2.4h-3.9V37h3.9v2.4H170.9z"/>
		<path id="XMLID_88_" d="M201.3,39.4l-9.8-15.9l-2-4.4h-0.2v20.3h-3V16.2h4.2l9.7,15.9l2.1,4.7h0.2V16.2h3v23.3L201.3,39.4
			L201.3,39.4z"/>
		<path id="XMLID_86_" d="M227.5,30.1l2.5-0.4h0.5V38c-3.1,1.2-5.8,1.9-8.8,1.9c-7.9,0-11.1-5.2-11.1-12.3c0-7.2,4.7-11.8,12.3-11.8
			c2.4,0,4.7,0.5,6.2,1.1l-0.5,2.8c-2.3-1-4.5-1.3-6.2-1.3c-4.5,0-8.6,2.8-8.6,9.3c0,6.8,3.5,9.7,8.2,9.7c1.7,0,3.6-0.2,5.5-1.1
			L227.5,30.1L227.5,30.1z"/>
		<path id="XMLID_84_" d="M234.3,36.5c1.9,0.5,3.7,0.8,5.5,0.8c3.6,0,6-1.3,6-4.1c0-4.9-11.5-3.2-11.5-10.9c0-4.4,3.9-6.5,8.5-6.5
			c1.5,0,3.4,0.2,5.1,0.7l-0.3,2.8c-1.7-0.6-3.4-0.9-5.1-0.9c-2.5,0-5,1-5,3.8c0,4.9,11.5,3.8,11.5,10.7c0,5.2-4.3,7.1-9.1,7.1
			c-1.9,0-4.3-0.3-5.8-0.7L234.3,36.5z"/>
	</g>
	<g id="XMLID_67_">
		<path id="XMLID_81_" d="M114.4,36.5c1.9,0.5,3.7,0.8,5.5,0.8c3.6,0,6-1.3,6-4.1c0-4.9-11.5-3.2-11.5-10.9c0-4.4,3.9-6.5,8.5-6.5
			c1.5,0,3.4,0.2,5.1,0.7l-0.3,2.8c-1.7-0.6-3.4-0.9-5.1-0.9c-2.5,0-5,1-5,3.8c0,4.9,11.5,3.8,11.5,10.7c0,5.2-4.3,7.1-9.1,7.1
			c-1.9,0-4.3-0.3-5.8-0.7L114.4,36.5z"/>
		<path id="XMLID_79_" d="M138.1,39.4V18.7H131v-2.5h17.3l-0.3,2.5h-6.9v20.7H138.1z"/>
		<path id="XMLID_76_" d="M165.2,39.4l-5.8-9.3h-4.7v9.3h-3V16.2h7c4.9,0,7.8,2.5,7.8,6.6c0,3.5-2.5,5.6-4,6.7l6.4,10L165.2,39.4
			L165.2,39.4z M160.6,27.6c1.6-1.1,2.7-2.6,2.7-4.7c0-2-1.4-4.2-4.4-4.2h-4.1v8.9H160.6z"/>
		<path id="XMLID_74_" d="M170.9,39.4V37h3.8V18.6h-3.8v-2.4h10.8v2.4h-3.9V37h3.9v2.4H170.9z"/>
		<path id="XMLID_72_" d="M201.3,39.4l-9.8-15.9l-2-4.4h-0.2v20.3h-3V16.2h4.2l9.7,15.9l2.1,4.7h0.2V16.2h3v23.3L201.3,39.4
			L201.3,39.4z"/>
		<path id="XMLID_70_" d="M227.5,30.1l2.5-0.4h0.5V38c-3.1,1.2-5.8,1.9-8.8,1.9c-7.9,0-11.1-5.2-11.1-12.3c0-7.2,4.7-11.8,12.3-11.8
			c2.4,0,4.7,0.5,6.2,1.1l-0.5,2.8c-2.3-1-4.5-1.3-6.2-1.3c-4.5,0-8.6,2.8-8.6,9.3c0,6.8,3.5,9.7,8.2,9.7c1.7,0,3.6-0.2,5.5-1.1
			L227.5,30.1L227.5,30.1z"/>
		<path id="XMLID_68_" d="M234.3,36.5c1.9,0.5,3.7,0.8,5.5,0.8c3.6,0,6-1.3,6-4.1c0-4.9-11.5-3.2-11.5-10.9c0-4.4,3.9-6.5,8.5-6.5
			c1.5,0,3.4,0.2,5.1,0.7l-0.3,2.8c-1.7-0.6-3.4-0.9-5.1-0.9c-2.5,0-5,1-5,3.8c0,4.9,11.5,3.8,11.5,10.7c0,5.2-4.3,7.1-9.1,7.1
			c-1.9,0-4.3-0.3-5.8-0.7L234.3,36.5z"/>
	</g>
</g>
</svg>
