<?xml version="1.0" encoding="utf-8"?>
<!-- Generator: Adobe Illustrator 19.0.0, SVG Export Plug-In . SVG Version: 6.00 Build 0)  -->
<svg version="1.1" xmlns="http://www.w3.org/2000/svg" xmlns:xlink="http://www.w3.org/1999/xlink" x="0px" y="0px"
	 viewBox="0 0 250 75" enable-background="new 0 0 250 75" xml:space="preserve">
<g id="Layer_1">
	<path fill="#FFFFFF" d="M36.3,50.7c0,0.2,0,0.5-0.1,0.8c-0.1,0.3-0.2,0.6-0.5,0.9c-0.3,0.3-0.7,0.5-1.2,0.7
		c-0.5,0.2-1.2,0.3-2.1,0.3c-0.9,0-1.6-0.1-2.1-0.3c-0.5-0.2-0.9-0.5-1.1-0.7c-0.2-0.3-0.4-0.6-0.5-0.9c-0.1-0.3-0.1-0.5-0.1-0.7
		V31.4c0-0.5-0.1-0.9-0.3-1.3c-0.2-0.4-0.6-0.5-1.1-0.5c-0.3,0-0.5,0-0.7,0.1c-0.2,0.1-0.4,0.2-0.6,0.4l-0.5-0.6
		c0.4-0.3,0.8-0.6,1.3-0.9c0.5-0.3,1-0.6,1.5-0.8c0.5-0.2,1.1-0.4,1.8-0.6c0.6-0.1,1.3-0.2,2-0.2c1.1,0,1.9,0.1,2.5,0.4
		c0.6,0.3,1,0.6,1.3,1.1c0.3,0.4,0.5,0.9,0.5,1.4c0.1,0.5,0.1,0.9,0.1,1.3V50.7z M27.9,21.3c0-0.5,0.1-0.9,0.3-1.3
		c0.2-0.4,0.5-0.8,0.9-1.1c0.4-0.3,0.8-0.6,1.3-0.7c0.5-0.2,1-0.3,1.6-0.3c0.6,0,1.1,0.1,1.6,0.3c0.5,0.2,0.9,0.4,1.3,0.7
		c0.4,0.3,0.7,0.7,0.9,1.1c0.2,0.4,0.3,0.9,0.3,1.3c0,0.5-0.1,0.9-0.3,1.3c-0.2,0.4-0.5,0.8-0.9,1.1c-0.4,0.3-0.8,0.6-1.3,0.7
		c-0.5,0.2-1,0.3-1.6,0.3c-0.6,0-1.1-0.1-1.6-0.3c-0.5-0.2-0.9-0.4-1.3-0.7c-0.4-0.3-0.7-0.7-0.9-1.1C28,22.3,27.9,21.8,27.9,21.3z"
		/>
	<path fill="#FFFFFF" d="M42.8,31.7c-0.1-0.7-0.3-1.2-0.5-1.5c-0.2-0.4-0.6-0.5-1.1-0.5c-0.3,0-0.5,0-0.7,0.1
		c-0.2,0.1-0.4,0.2-0.7,0.4l-0.5-0.6c0.4-0.3,0.8-0.6,1.3-0.9s1-0.6,1.5-0.8c0.5-0.2,1.1-0.4,1.8-0.6c0.6-0.1,1.3-0.2,2-0.2
		c1,0,1.8,0.2,2.4,0.5c0.6,0.3,1.1,0.8,1.5,1.3c0.4,0.5,0.6,1.1,0.8,1.6c0.2,0.6,0.3,1.1,0.3,1.6c0.6,5,1.3,8.9,2.1,11.4
		c0.8,2.6,1.7,3.9,2.7,3.9c0.6,0,1.1-0.3,1.7-0.9c0.5-0.6,1-1.5,1.4-2.6c0.4-1.1,0.7-2.4,1-3.8c0.2-1.5,0.4-3,0.4-4.7
		c0-1.1-0.1-2-0.2-2.8c-0.2-0.8-0.3-1.4-0.5-1.9c-0.2-0.5-0.4-0.9-0.5-1.3c-0.1-0.3-0.2-0.6-0.2-0.9c0-0.2,0.1-0.5,0.3-0.6
		c0.2-0.2,0.4-0.3,0.7-0.4s0.6-0.2,0.9-0.2C60.8,27,61,27,61.2,27c0.5,0,0.8,0.1,1.1,0.2c0.2,0.1,0.4,0.4,0.5,0.8
		c0.2,0.5,0.3,1.1,0.3,1.9c0.1,0.8,0.1,1.6,0.1,2.5c0,1.3-0.1,2.7-0.3,4.2c-0.2,1.5-0.4,3.1-0.8,4.6c-0.4,1.5-0.8,3-1.4,4.5
		c-0.6,1.4-1.2,2.7-2,3.9c-0.8,1.1-1.6,2-2.6,2.7c-1,0.7-2,1-3.2,1c-1.4,0-2.6-0.4-3.6-1.2c-1-0.8-1.9-1.8-2.6-3.1
		c-0.7-1.3-1.3-2.7-1.8-4.3c-0.5-1.6-0.8-3.2-1.1-4.8c-0.3-1.6-0.5-3.1-0.7-4.6C43.1,33.9,42.9,32.7,42.8,31.7z"/>
	<path fill="#FFFFFF" d="M75.3,33.8c0.6-0.8,1.2-1.6,1.9-2.4c0.7-0.8,1.4-1.5,2.1-2.2c0.8-0.6,1.6-1.2,2.5-1.6
		c0.9-0.4,1.9-0.6,2.9-0.6c1,0,1.7,0.2,2.4,0.6c0.6,0.4,1.1,0.8,1.5,1.3c0.4,0.5,0.7,1.1,0.8,1.6c0.2,0.6,0.2,1,0.2,1.4
		c0,0.7-0.1,1.5-0.3,2.3c-0.2,0.8-0.5,1.6-1,2.3c-0.5,0.8-1.1,1.5-1.8,2.2c-0.8,0.7-1.7,1.4-2.9,2c1.6,3.3,3.1,6.2,4.6,8.5
		c1.5,2.4,2.9,4.3,4.3,5.9c1.4,1.5,2.7,2.7,4,3.4c1.3,0.7,2.5,1.1,3.6,1.1c0.2,0,0.4,0,0.6-0.1c0.2,0,0.4-0.1,0.5-0.2
		c0.2-0.1,0.4-0.2,0.6-0.2l0.5,0.9c-0.4,0.2-0.9,0.5-1.4,0.7c-0.5,0.2-1,0.4-1.6,0.6c-0.6,0.2-1.3,0.3-2.1,0.4
		C96.6,62,95.6,62,94.5,62c-1,0-2-0.1-2.9-0.3c-1-0.2-1.9-0.6-2.9-1.2c-1-0.6-1.9-1.4-2.9-2.4c-1-1-2-2.3-3.1-3.8
		c-1-1.5-2.1-3.4-3.2-5.5s-2.2-4.6-3.4-7.4c1.6-1.2,2.9-2.3,3.8-3.3c0.9-1,1.6-1.9,2.1-2.7c0.5-0.8,0.8-1.5,0.9-2.2
		C83,32.5,83,32,83,31.5c0-0.1,0-0.2,0-0.3c0-0.2-0.1-0.3-0.2-0.5c-0.1-0.2-0.2-0.3-0.4-0.4s-0.4-0.2-0.7-0.2
		c-0.6,0-1.2,0.3-1.9,0.8c-0.6,0.5-1.2,1.2-1.8,1.9c-0.6,0.8-1.1,1.6-1.6,2.5c-0.5,0.9-0.8,1.7-1.1,2.4v12.9c0,0.2,0,0.5-0.1,0.8
		c-0.1,0.3-0.2,0.6-0.5,0.8c-0.3,0.3-0.7,0.5-1.2,0.7s-1.2,0.3-2.1,0.3c-0.9,0-1.6-0.1-2.1-0.3c-0.5-0.2-0.9-0.5-1.1-0.7
		c-0.2-0.3-0.4-0.6-0.4-0.9c-0.1-0.3-0.1-0.5-0.1-0.7V18.5c0-0.5-0.1-0.9-0.3-1.3c-0.2-0.4-0.6-0.5-1.1-0.5c-0.3,0-0.5,0-0.7,0.1
		c-0.2,0.1-0.4,0.2-0.7,0.4l-0.5-0.6c0.4-0.3,0.8-0.6,1.3-0.9c0.5-0.3,1-0.6,1.5-0.8c0.6-0.2,1.2-0.4,1.8-0.6c0.6-0.1,1.3-0.2,2-0.2
		c1.1,0,1.9,0.1,2.5,0.4c0.6,0.3,1,0.6,1.3,1.1c0.3,0.4,0.5,0.9,0.5,1.3c0.1,0.5,0.1,0.9,0.1,1.3V33.8z"/>
	<path fill="#FFFFFF" d="M102,29.1c-0.6,0-1.1,0.1-1.6,0.2c-0.5,0.1-0.9,0.3-1.2,0.5c-0.4,0.2-0.6,0.4-0.8,0.7
		c-0.2,0.2-0.3,0.5-0.3,0.7c0,0.2,0.1,0.4,0.4,0.5s0.5,0.2,0.9,0.4c0.3,0.1,0.6,0.3,0.9,0.6c0.3,0.3,0.4,0.7,0.4,1.2
		c0,0.3-0.1,0.7-0.2,1c-0.1,0.3-0.3,0.5-0.6,0.8c-0.2,0.2-0.5,0.4-0.9,0.5c-0.3,0.1-0.7,0.2-1,0.2c-0.9,0-1.7-0.3-2.3-0.9
		c-0.6-0.6-0.9-1.5-0.9-2.5c0-1,0.3-1.9,0.8-2.6c0.5-0.7,1.2-1.3,2.1-1.8c0.9-0.5,1.8-0.8,2.9-1c1.1-0.2,2.2-0.3,3.2-0.3
		c1.3,0,2.5,0.1,3.7,0.4c1.2,0.3,2.2,0.7,3.1,1.3c0.9,0.6,1.6,1.4,2.2,2.3c0.5,0.9,0.8,2.1,0.8,3.4v14.1c0,0.1,0,0.3,0,0.5
		c0,0.2,0.1,0.3,0.1,0.5c0.1,0.1,0.2,0.3,0.3,0.4c0.1,0.1,0.3,0.1,0.6,0.1c0.3,0,0.6-0.1,0.8-0.3c0.3-0.2,0.5-0.5,0.7-0.7l0.6,0.5
		c-0.2,0.3-0.5,0.7-0.9,1.1c-0.4,0.4-0.8,0.8-1.3,1.2s-1.1,0.7-1.8,0.9c-0.7,0.2-1.4,0.4-2.3,0.4c-1.1,0-2-0.3-2.8-0.9
		c-0.8-0.6-1.3-1.6-1.6-2.9c-0.5,0.7-1.1,1.3-1.7,1.8c-0.6,0.5-1.2,0.9-1.8,1.2c-0.6,0.3-1.2,0.5-1.8,0.6c-0.6,0.1-1.2,0.2-1.8,0.2
		c-0.8,0-1.6-0.1-2.3-0.4c-0.7-0.2-1.4-0.6-2-1.2c-0.6-0.5-1.1-1.2-1.4-2.1c-0.4-0.9-0.5-1.9-0.5-3.2c0-1.5,0.3-2.8,0.9-3.7
		c0.6-1,1.4-1.8,2.4-2.4c1-0.7,2.1-1.2,3.3-1.7c1.2-0.5,2.5-1,3.8-1.5c1-0.4,1.7-1,2.1-1.7c0.4-0.8,0.7-1.5,0.7-2.3
		c0-1.2-0.4-2.2-1.1-3C104.3,29.4,103.3,29.1,102,29.1z M106,40c0-0.4-0.1-0.7-0.4-0.9c-0.3-0.2-0.6-0.3-1-0.3
		c-0.6,0-1.1,0.1-1.7,0.4c-0.5,0.3-1,0.7-1.4,1.2c-0.4,0.5-0.7,1.2-0.9,1.9c-0.2,0.8-0.4,1.6-0.4,2.6c0,1,0.1,1.8,0.2,2.4
		c0.1,0.6,0.3,1.1,0.6,1.5c0.2,0.4,0.5,0.6,0.8,0.8c0.3,0.2,0.7,0.2,1,0.2c0.4,0,0.8-0.1,1.2-0.3c0.4-0.2,0.7-0.5,1-0.9
		c0.3-0.3,0.5-0.7,0.7-1.2c0.2-0.4,0.2-0.9,0.2-1.3V40z"/>
	<path fill="#FFFFFF" d="M141.3,20c0-0.5-0.2-0.9-0.6-1.2c-0.4-0.3-0.8-0.4-1.3-0.4c-0.9,0-1.8,0.1-2.7,0.4
		c-0.9,0.3-1.7,0.6-2.4,1.1c-0.7,0.5-1.3,1-1.7,1.7c-0.4,0.7-0.6,1.4-0.6,2.1c0,0.5,0.1,1,0.2,1.3c0.1,0.3,0.3,0.6,0.5,0.7
		c0.2,0.2,0.4,0.3,0.6,0.3c0.2,0,0.3,0.1,0.4,0.1c0.4,0,0.8-0.1,1-0.2c0.3-0.1,0.5-0.3,0.7-0.4c0.2-0.2,0.4-0.3,0.6-0.4
		c0.2-0.1,0.4-0.2,0.7-0.2c0.2,0,0.4,0,0.6,0.1c0.2,0.1,0.4,0.2,0.6,0.4c0.2,0.2,0.4,0.5,0.5,0.8c0.1,0.3,0.2,0.7,0.2,1.2
		c0,0.7-0.1,1.2-0.4,1.7c-0.3,0.5-0.6,0.9-1,1.2c-0.4,0.3-0.9,0.6-1.4,0.7c-0.5,0.2-1,0.2-1.6,0.2c-0.8,0-1.5-0.1-2.2-0.4
		c-0.6-0.3-1.2-0.7-1.6-1.1c-0.4-0.5-0.8-1-1-1.7c-0.2-0.6-0.4-1.3-0.4-2.1c0-2.1,0.5-3.8,1.6-5.1c1.1-1.3,2.5-2.4,4.3-3.2
		c1.8-0.8,3.9-1.3,6.3-1.6c2.4-0.3,5-0.4,7.7-0.4c3.1,0,5.9,0.3,8.4,0.9c2.5,0.6,4.7,1.6,6.4,3c1.8,1.4,3.2,3.2,4.1,5.5
		c1,2.3,1.5,5,1.5,8.2c0,3.2-0.5,6.1-1.5,8.6c-1,2.5-2.4,4.6-4.2,6.3c-1.8,1.7-3.9,3-6.3,3.9c-2.4,0.9-5,1.3-7.7,1.3
		c-1.8,0-3.3-0.1-4.4-0.3c-1.1-0.2-2-0.5-2.6-0.9c-0.6-0.4-1-1-1.2-1.7c-0.2-0.7-0.3-1.6-0.3-2.7V20z M149.5,48.2
		c0,0.9,0.2,1.6,0.6,2c0.4,0.4,1.1,0.6,1.9,0.6c1.3,0,2.4-0.3,3.5-0.8c1.1-0.5,2-1.5,2.7-2.8c0.8-1.3,1.4-3.1,1.8-5.4
		c0.4-2.2,0.6-5,0.6-8.4c0-2.3-0.1-4.2-0.4-5.9c-0.3-1.7-0.6-3.1-1.1-4.2c-0.5-1.2-1-2.1-1.5-2.8c-0.6-0.7-1.2-1.3-1.8-1.7
		c-0.6-0.4-1.2-0.7-1.8-0.8c-0.6-0.1-1.1-0.2-1.5-0.2c-1.1,0-1.9,0.2-2.3,0.7c-0.5,0.5-0.7,1.3-0.7,2.6V48.2z"/>
	<path fill="#FFFFFF" d="M196.4,48.6c0,0.2,0,0.3,0,0.5c0,0.2,0.1,0.3,0.1,0.5c0.1,0.2,0.2,0.3,0.3,0.4c0.1,0.1,0.3,0.2,0.6,0.2
		c0.3,0,0.6-0.1,0.9-0.3c0.2-0.2,0.5-0.5,0.7-0.7l0.6,0.5c-0.3,0.3-0.6,0.7-0.9,1.2c-0.4,0.4-0.8,0.8-1.4,1.2
		c-0.5,0.4-1.1,0.7-1.8,1c-0.7,0.3-1.5,0.4-2.3,0.4c-0.7,0-1.4-0.1-1.9-0.3c-0.5-0.2-1-0.4-1.4-0.8c-0.4-0.3-0.7-0.7-0.8-1.1
		c-0.2-0.4-0.3-0.9-0.3-1.4v-1.1c-0.8,0.9-1.7,1.7-2.6,2.4c-0.4,0.3-0.8,0.6-1.3,0.9c-0.4,0.3-0.9,0.5-1.4,0.8
		c-0.5,0.2-1,0.4-1.5,0.5c-0.5,0.1-1,0.2-1.5,0.2c-1,0-1.9-0.2-2.6-0.5c-0.7-0.4-1.3-0.8-1.7-1.4c-0.4-0.6-0.7-1.2-0.9-2
		c-0.2-0.7-0.3-1.5-0.3-2.2V31.7c0-0.1,0-0.3,0-0.5c0-0.2-0.1-0.3-0.1-0.5c-0.1-0.2-0.2-0.3-0.3-0.4c-0.1-0.1-0.3-0.1-0.6-0.1
		c-0.3,0-0.6,0.1-0.8,0.3c-0.3,0.2-0.5,0.5-0.7,0.7l-0.6-0.5c0.2-0.3,0.6-0.7,0.9-1.2c0.4-0.4,0.8-0.8,1.4-1.2
		c0.5-0.4,1.1-0.7,1.8-1c0.7-0.3,1.5-0.4,2.3-0.4c0.7,0,1.4,0.1,1.9,0.3c0.5,0.2,1,0.4,1.4,0.8c0.4,0.3,0.6,0.7,0.8,1.1
		c0.2,0.4,0.3,0.9,0.3,1.4v16.7c0,0.2,0,0.5,0.1,0.7c0.1,0.2,0.2,0.5,0.3,0.7c0.1,0.2,0.3,0.4,0.5,0.5c0.2,0.1,0.5,0.2,0.8,0.2
		c0.5,0,1-0.1,1.4-0.4c0.5-0.2,0.9-0.5,1.3-0.9c0.4-0.3,0.7-0.7,1-1c0.3-0.3,0.5-0.6,0.6-0.7V31.7c0-0.1,0-0.3,0-0.5
		c0-0.2-0.1-0.3-0.1-0.5c-0.1-0.2-0.2-0.3-0.3-0.4c-0.1-0.1-0.3-0.1-0.6-0.1c-0.3,0-0.6,0.1-0.8,0.3c-0.3,0.2-0.5,0.5-0.7,0.7
		l-0.6-0.5c0.3-0.3,0.6-0.7,0.9-1.2c0.4-0.4,0.8-0.8,1.4-1.2c0.5-0.4,1.1-0.7,1.8-1c0.7-0.3,1.5-0.4,2.3-0.4c0.7,0,1.4,0.1,1.9,0.3
		c0.5,0.2,1,0.4,1.4,0.8c0.4,0.3,0.6,0.7,0.8,1.1c0.2,0.4,0.3,0.9,0.3,1.4V48.6z"/>
	<path fill="#FFFFFF" d="M210.7,33.8c0.6-0.8,1.2-1.6,1.9-2.4c0.7-0.8,1.4-1.5,2.2-2.2c0.8-0.6,1.6-1.2,2.5-1.6
		c0.9-0.4,1.9-0.6,2.9-0.6c0.9,0,1.7,0.2,2.4,0.6c0.6,0.4,1.1,0.8,1.5,1.3c0.4,0.5,0.7,1.1,0.8,1.6c0.2,0.6,0.2,1,0.2,1.4
		c0,0.7-0.1,1.5-0.3,2.3c-0.2,0.8-0.5,1.6-1,2.3c-0.5,0.8-1.1,1.5-1.8,2.2c-0.8,0.7-1.7,1.4-2.9,2c1.6,3.3,3.1,6.2,4.6,8.5
		c1.5,2.4,2.9,4.3,4.3,5.9s2.7,2.7,4,3.4c1.3,0.7,2.5,1.1,3.6,1.1c0.2,0,0.4,0,0.6-0.1c0.2,0,0.4-0.1,0.5-0.2
		c0.2-0.1,0.4-0.2,0.6-0.2l0.5,0.9c-0.4,0.2-0.9,0.5-1.4,0.7c-0.5,0.2-1,0.4-1.6,0.6c-0.6,0.2-1.3,0.3-2.1,0.4
		C232,62,231.1,62,230,62c-1,0-2-0.1-2.9-0.3c-1-0.2-1.9-0.6-2.9-1.2c-1-0.6-1.9-1.4-2.9-2.4c-1-1-2-2.3-3-3.8
		c-1-1.5-2.1-3.4-3.2-5.5c-1.1-2.1-2.2-4.6-3.4-7.4c1.6-1.2,2.9-2.3,3.8-3.3c0.9-1,1.6-1.9,2.1-2.7s0.8-1.5,0.9-2.2
		c0.1-0.6,0.2-1.2,0.2-1.6c0-0.1,0-0.2,0-0.3c0-0.2-0.1-0.3-0.2-0.5c-0.1-0.2-0.2-0.3-0.4-0.4c-0.2-0.1-0.4-0.2-0.7-0.2
		c-0.6,0-1.2,0.3-1.9,0.8c-0.6,0.5-1.2,1.2-1.8,1.9c-0.6,0.8-1.1,1.6-1.6,2.5c-0.5,0.9-0.9,1.7-1.2,2.4v12.9c0,0.2,0,0.5-0.1,0.8
		c-0.1,0.3-0.3,0.6-0.5,0.8c-0.3,0.3-0.7,0.5-1.2,0.7s-1.2,0.3-2.1,0.3c-0.9,0-1.6-0.1-2.1-0.3c-0.5-0.2-0.9-0.5-1.1-0.7
		c-0.2-0.3-0.4-0.6-0.4-0.9c-0.1-0.3-0.1-0.5-0.1-0.7V18.5c0-0.5-0.1-0.9-0.3-1.3c-0.2-0.4-0.6-0.5-1.1-0.5c-0.3,0-0.5,0-0.7,0.1
		c-0.2,0.1-0.4,0.2-0.7,0.4l-0.5-0.6c0.4-0.3,0.8-0.6,1.3-0.9c0.5-0.3,1-0.6,1.5-0.8c0.6-0.2,1.2-0.4,1.8-0.6c0.6-0.1,1.3-0.2,2-0.2
		c1.1,0,1.9,0.1,2.5,0.4c0.6,0.3,1,0.6,1.3,1.1c0.3,0.4,0.5,0.9,0.5,1.3c0.1,0.5,0.1,0.9,0.1,1.3V33.8z"/>
	<path fill="#FFFFFF" d="M236.1,41.5c0,0.5,0.1,1.1,0.2,1.7c0.2,0.6,0.4,1.3,0.7,1.9c0.3,0.6,0.7,1.2,1.1,1.8
		c0.4,0.6,0.9,1.1,1.5,1.5s1.2,0.8,1.9,1.1c0.7,0.3,1.5,0.4,2.3,0.4c0.6,0,1.1-0.1,1.6-0.2c0.5-0.1,1-0.3,1.4-0.5
		c0.4-0.2,0.9-0.5,1.3-0.8s0.8-0.6,1.2-1l0.6,0.6c-0.4,0.5-0.9,1.1-1.5,1.7c-0.6,0.6-1.3,1.2-2.2,1.7s-1.8,1-3,1.3
		c-1.1,0.4-2.4,0.5-3.9,0.5c-1.4,0-2.9-0.3-4.2-0.8s-2.6-1.3-3.7-2.4c-1.1-1-1.9-2.4-2.6-3.9c-0.6-1.6-1-3.4-1-5.5
		c0-1.5,0.2-2.9,0.6-4.2c0.4-1.3,0.9-2.4,1.6-3.4c0.7-1,1.4-1.9,2.3-2.7c0.9-0.8,1.8-1.4,2.8-1.9c1-0.5,2-0.9,3-1.1
		c1-0.3,2-0.4,2.9-0.4c1.2,0,2.3,0.1,3.2,0.4c0.9,0.3,1.7,0.6,2.3,1.1c0.6,0.4,1.1,1,1.4,1.6c0.3,0.6,0.4,1.2,0.4,1.9
		c0,0.8-0.2,1.5-0.7,2.1s-1,1.2-1.8,1.6L236.1,41.5z M241.1,36.4c0.2-0.1,0.4-0.3,0.5-0.4c0.1-0.1,0.3-0.3,0.3-0.4
		c0.1-0.2,0.1-0.4,0.2-0.6s0.1-0.6,0.1-1c0-0.4,0-0.9-0.1-1.4c-0.1-0.5-0.2-1-0.5-1.4c-0.2-0.4-0.5-0.8-0.8-1.1
		c-0.3-0.3-0.7-0.4-1.2-0.4c-0.6,0-1.1,0.2-1.5,0.5c-0.4,0.4-0.8,0.8-1.1,1.4c-0.3,0.6-0.5,1.2-0.6,1.9c-0.2,0.7-0.3,1.5-0.4,2.2
		c-0.1,0.7-0.1,1.4-0.1,2.1c0,0.7,0,1.2,0,1.7L241.1,36.4z"/>
	<path fill="#FFFFFF" d="M22.3,3c-0.1-0.4-0.3-0.8-0.6-1.1c-0.4-0.4-0.9-0.7-1.7-0.9c-0.8-0.3-1.8-0.4-3.2-0.4
		c-1.2,0-2.5,0.1-3.7,0.3C11.9,1,10.7,1.3,9.6,1.6C8.4,2,7.4,2.5,6.4,3.1c-1,0.6-1.8,1.2-2.6,2C3.1,5.9,2.6,6.7,2.2,7.7
		c-0.4,1-0.6,2-0.6,3.2c0,0.7,0.1,1.4,0.4,2.1c0.2,0.6,0.6,1.2,1,1.7c0.5,0.5,1,0.9,1.6,1.1c0.6,0.3,1.4,0.4,2.2,0.4
		c0.5,0,1-0.1,1.6-0.2c0.5-0.2,1-0.4,1.4-0.7c0.4-0.3,0.7-0.7,1-1.2c0.3-0.5,0.4-1.1,0.4-1.7c0-0.5-0.1-0.9-0.2-1.2
		c-0.1-0.3-0.3-0.6-0.5-0.8c-0.2-0.2-0.4-0.3-0.6-0.4C9.5,9.7,9.3,9.7,9.1,9.7c-0.2,0-0.5,0.1-0.7,0.2c-0.2,0.1-0.4,0.3-0.6,0.4
		c-0.2,0.2-0.5,0.3-0.7,0.4C6.8,11,6.5,11,6.1,11C6,11,5.9,11,5.7,11c-0.2,0-0.4-0.1-0.6-0.3c-0.2-0.2-0.3-0.4-0.5-0.7
		C4.5,9.6,4.4,9.2,4.4,8.7c0-0.6,0.1-1.2,0.5-1.7c0.3-0.5,0.7-1,1.2-1.4c0.5-0.4,1-0.8,1.6-1.2C8.2,4,8.9,3.7,9.5,3.5
		c0.6-0.2,1.2-0.4,1.7-0.5c0.5-0.1,1-0.2,1.4-0.2c0.2,0,0.5,0,0.7,0.1s0.4,0.1,0.5,0.2c0.2,0.1,0.3,0.3,0.4,0.5
		c0.1,0.2,0.1,0.5,0.1,0.9v15.4c0,0.9-0.7,1.1-1.1,1.1c-1.2,0.2-2.4,0.5-3.6,0.9c-1.1,0.4-2.2,0.9-3.2,1.4c-1,0.6-1.8,1.2-2.6,2
		c-0.7,0.8-1.3,1.6-1.7,2.6c-0.4,1-0.6,2-0.6,3.2c0,0.7,0.1,1.4,0.4,2.1c0.2,0.6,0.6,1.2,1,1.7c0.5,0.5,1,0.9,1.6,1.1
		c0.6,0.3,1.4,0.4,2.2,0.4c0.5,0,1-0.1,1.6-0.2c0.5-0.2,1-0.4,1.4-0.7c0.4-0.3,0.7-0.7,1-1.2c0.3-0.5,0.4-1.1,0.4-1.7
		c0-0.5-0.1-0.9-0.2-1.2c-0.1-0.3-0.3-0.6-0.5-0.8c-0.2-0.2-0.4-0.3-0.6-0.4c-0.2-0.1-0.4-0.1-0.6-0.1c-0.2,0-0.5,0.1-0.7,0.2
		c-0.2,0.1-0.4,0.3-0.6,0.4c-0.2,0.2-0.5,0.3-0.7,0.4c-0.3,0.1-0.6,0.2-1,0.2c-0.1,0-0.2,0-0.4-0.1c-0.2,0-0.4-0.1-0.6-0.3
		c-0.2-0.2-0.3-0.4-0.5-0.7c-0.1-0.3-0.2-0.7-0.2-1.3c0-0.6,0.1-1.2,0.5-1.7c0.3-0.5,0.7-1,1.2-1.4s1-0.8,1.6-1.2
		c0.6-0.3,1.2-0.6,1.8-0.9c0.6-0.2,1.2-0.4,1.7-0.5c0.5-0.1,1-0.2,1.4-0.2c0.2,0,0.5,0,0.7,0.1c0.2,0,0.4,0.1,0.5,0.2
		c0.2,0.1,0.3,0.3,0.4,0.5c0.1,0.2,0.1,0.5,0.1,0.9v3.4v34c0,1.4-0.1,2.7-0.4,3.9c-0.3,1.2-0.7,2.2-1.3,3c-0.6,0.8-1.4,1.5-2.3,2
		c-0.9,0.5-2,0.7-3.3,0.7c-0.7,0-1.2-0.1-1.6-0.3c-0.4-0.2-0.8-0.4-1.1-0.7c-0.3-0.3-0.6-0.6-0.7-0.9C3.2,69.6,3,69.3,2.9,69
		c-0.2-0.3-0.3-0.5-0.4-0.7c-0.1-0.2-0.3-0.3-0.5-0.3c-0.3,0-0.6,0.1-0.8,0.2c-0.2,0.2-0.4,0.4-0.6,0.6c-0.2,0.2-0.3,0.5-0.4,0.8
		C0,70.1,0,70.4,0,70.7c0,0.4,0.2,0.8,0.5,1.1c0.4,0.3,0.8,0.6,1.4,0.9c0.6,0.2,1.3,0.4,2.1,0.6c0.8,0.1,1.6,0.2,2.5,0.2
		c2.2,0,4.3-0.3,6.2-0.8c1.9-0.6,3.6-1.4,5.1-2.5c1.4-1.1,2.6-2.5,3.4-4.2c0.8-1.7,1.2-3.6,1.2-5.9V28.2v-4V4
		C22.4,3.7,22.4,3.4,22.3,3z"/>
</g>
<g id="Layer_2">
</g>
</svg>
