<?xml version="1.0" encoding="utf-8"?>
<!-- Generator: Adobe Illustrator 26.2.1, SVG Export Plug-In . SVG Version: 6.00 Build 0)  -->
<svg version="1.1" id="Layer_1" xmlns="http://www.w3.org/2000/svg" xmlns:xlink="http://www.w3.org/1999/xlink" x="0px" y="0px"
	 viewBox="0 0 230 50" style="enable-background:new 0 0 230 50;" xml:space="preserve">
<style type="text/css">
	.st0{fill:#FFFFFF;}
</style>
<path class="st0" d="M13.1,8.6c0-0.5-0.2-0.8-0.5-1s-0.7-0.3-1.1-0.3c-0.8,0-1.6,0.1-2.4,0.4s-1.5,0.6-2.1,1C6.3,9,5.8,9.5,5.4,10.1
	c-0.4,0.6-0.6,1.2-0.6,1.9c0,0.5,0.1,0.8,0.2,1.1c0.1,0.3,0.3,0.5,0.4,0.6s0.3,0.2,0.5,0.3C6.2,14,6.3,14,6.4,14
	c0.4,0,0.7-0.1,0.9-0.2c0.2-0.1,0.4-0.3,0.6-0.4c0.2-0.1,0.4-0.3,0.5-0.4c0.2-0.1,0.4-0.2,0.6-0.2c0.2,0,0.4,0,0.6,0.1
	s0.4,0.2,0.6,0.4c0.2,0.2,0.3,0.4,0.4,0.7c0.1,0.3,0.2,0.6,0.2,1c0,0.6-0.1,1.1-0.3,1.5s-0.5,0.8-0.9,1.1c-0.4,0.3-0.8,0.5-1.2,0.6
	c-0.5,0.1-0.9,0.2-1.4,0.2c-0.7,0-1.3-0.1-1.9-0.4c-0.6-0.2-1-0.6-1.4-1c-0.4-0.4-0.7-0.9-0.9-1.5c-0.2-0.6-0.3-1.2-0.3-1.8
	c0-1.8,0.5-3.3,1.4-4.5c0.9-1.2,2.2-2.1,3.8-2.8c1.6-0.7,3.4-1.2,5.6-1.4c2.1-0.3,4.4-0.4,6.8-0.4c2.7,0,5.2,0.3,7.4,0.8
	s4.1,1.4,5.7,2.7c1.6,1.2,2.8,2.8,3.6,4.8c0.9,2,1.3,4.4,1.3,7.3c0,2.9-0.5,5.4-1.4,7.6c-0.9,2.2-2.1,4.1-3.7,5.6
	c-1.6,1.5-3.4,2.6-5.5,3.4c-2.1,0.8-4.4,1.2-6.8,1.2c-1.6,0-2.9-0.1-3.9-0.2c-1-0.2-1.7-0.4-2.3-0.8s-0.9-0.9-1.1-1.5
	c-0.2-0.6-0.3-1.4-0.3-2.4V8.6z M20.3,33.4c0,0.8,0.2,1.4,0.6,1.8c0.4,0.4,0.9,0.5,1.7,0.5c1.1,0,2.1-0.2,3-0.7
	c0.9-0.5,1.7-1.3,2.4-2.5c0.7-1.2,1.2-2.8,1.6-4.7c0.4-2,0.6-4.4,0.6-7.4c0-2-0.1-3.7-0.4-5.2s-0.6-2.7-1-3.7
	c-0.4-1-0.8-1.8-1.4-2.5c-0.5-0.6-1-1.1-1.6-1.5c-0.5-0.4-1-0.6-1.6-0.7s-1-0.2-1.4-0.2c-1,0-1.6,0.2-2.1,0.6
	c-0.4,0.4-0.6,1.2-0.6,2.3V33.4z"/>
<path class="st0" d="M58.6,33.8c0,0.1,0,0.3,0,0.4s0.1,0.3,0.1,0.4c0.1,0.1,0.1,0.3,0.3,0.3c0.1,0.1,0.3,0.1,0.5,0.1
	c0.3,0,0.5-0.1,0.7-0.3s0.4-0.4,0.6-0.6l0.5,0.5c-0.2,0.3-0.5,0.6-0.8,1c-0.3,0.4-0.7,0.7-1.2,1.1c-0.5,0.3-1,0.6-1.6,0.8
	c-0.6,0.2-1.3,0.3-2,0.3c-0.6,0-1.2-0.1-1.7-0.3c-0.5-0.2-0.9-0.4-1.2-0.7s-0.6-0.6-0.7-1c-0.2-0.4-0.2-0.8-0.2-1.2v-1
	c-0.7,0.8-1.5,1.5-2.3,2.1c-0.4,0.3-0.7,0.5-1.1,0.8c-0.4,0.2-0.8,0.5-1.2,0.7s-0.9,0.4-1.3,0.5S45,38,44.5,38
	c-0.9,0-1.6-0.2-2.3-0.5c-0.6-0.3-1.1-0.7-1.5-1.2c-0.4-0.5-0.7-1.1-0.8-1.7c-0.2-0.6-0.3-1.3-0.3-1.9V19c0-0.1,0-0.3,0-0.4
	c0-0.2-0.1-0.3-0.1-0.4c-0.1-0.1-0.1-0.3-0.3-0.3c-0.1-0.1-0.3-0.1-0.5-0.1c-0.3,0-0.5,0.1-0.7,0.3s-0.4,0.4-0.6,0.6l-0.6-0.5
	c0.2-0.3,0.5-0.6,0.8-1c0.3-0.4,0.7-0.7,1.2-1.1c0.5-0.3,1-0.6,1.6-0.8c0.6-0.2,1.3-0.3,2-0.3c0.6,0,1.2,0.1,1.7,0.3
	c0.5,0.2,0.9,0.4,1.2,0.7c0.3,0.3,0.6,0.6,0.7,1s0.2,0.8,0.2,1.2v14.7c0,0.2,0,0.4,0.1,0.6c0.1,0.2,0.2,0.4,0.3,0.6
	c0.1,0.2,0.3,0.3,0.5,0.4c0.2,0.1,0.4,0.2,0.7,0.2c0.4,0,0.9-0.1,1.3-0.3c0.4-0.2,0.8-0.5,1.2-0.8s0.7-0.6,0.9-0.9s0.4-0.5,0.6-0.7
	V19c0-0.1,0-0.3,0-0.4c0-0.2-0.1-0.3-0.1-0.4c-0.1-0.1-0.1-0.3-0.3-0.3c-0.1-0.1-0.3-0.1-0.5-0.1c-0.3,0-0.5,0.1-0.7,0.3
	c-0.2,0.2-0.4,0.4-0.6,0.6l-0.6-0.5c0.2-0.3,0.5-0.6,0.8-1c0.3-0.4,0.7-0.7,1.2-1.1c0.5-0.3,1-0.6,1.6-0.8c0.6-0.2,1.3-0.3,2-0.3
	c0.6,0,1.2,0.1,1.7,0.3c0.5,0.2,0.9,0.4,1.2,0.7c0.3,0.3,0.6,0.6,0.7,1s0.2,0.8,0.2,1.2V33.8z"/>
<path class="st0" d="M67.5,20.8c0.5-0.7,1.1-1.4,1.7-2.1c0.6-0.7,1.2-1.4,1.9-1.9s1.4-1,2.2-1.4s1.7-0.6,2.6-0.6
	c0.8,0,1.5,0.2,2.1,0.5s1,0.7,1.4,1.2c0.3,0.5,0.6,0.9,0.7,1.4c0.1,0.5,0.2,0.9,0.2,1.3c0,0.6-0.1,1.3-0.3,2
	c-0.2,0.7-0.5,1.4-0.9,2.1c-0.4,0.7-0.9,1.3-1.6,2C76.9,25.9,76,26.5,75,27c1.4,2.9,2.7,5.4,4,7.5c1.3,2.1,2.6,3.8,3.8,5.2
	c1.2,1.4,2.4,2.4,3.5,3c1.1,0.6,2.2,1,3.2,1c0.2,0,0.4,0,0.5-0.1c0.2,0,0.3-0.1,0.5-0.2c0.2-0.1,0.3-0.1,0.5-0.2l0.4,0.8
	c-0.4,0.2-0.8,0.4-1.2,0.6c-0.4,0.2-0.9,0.4-1.4,0.5s-1.1,0.3-1.8,0.4c-0.7,0.1-1.5,0.1-2.5,0.1c-0.9,0-1.7-0.1-2.6-0.3
	c-0.8-0.2-1.7-0.6-2.5-1.1c-0.9-0.5-1.7-1.2-2.6-2.1c-0.9-0.9-1.8-2-2.7-3.3c-0.9-1.4-1.9-3-2.8-4.8s-2-4-3-6.5c1.4-1,2.5-2,3.3-2.9
	c0.8-0.9,1.4-1.7,1.8-2.4c0.4-0.7,0.7-1.4,0.8-1.9c0.1-0.6,0.2-1,0.2-1.4c0-0.1,0-0.2,0-0.3c0-0.1-0.1-0.3-0.1-0.4
	c-0.1-0.1-0.2-0.2-0.4-0.4c-0.2-0.1-0.4-0.2-0.6-0.2c-0.5,0-1.1,0.2-1.7,0.7c-0.6,0.5-1.1,1-1.6,1.7c-0.5,0.7-1,1.4-1.4,2.2
	c-0.4,0.8-0.7,1.5-1,2.1v11.4c0,0.2,0,0.4-0.1,0.7c-0.1,0.3-0.2,0.5-0.5,0.7c-0.2,0.2-0.6,0.4-1.1,0.6c-0.5,0.2-1.1,0.3-1.9,0.3
	c-0.8,0-1.4-0.1-1.8-0.3c-0.4-0.2-0.8-0.4-1-0.6c-0.2-0.2-0.3-0.5-0.4-0.8c-0.1-0.3-0.1-0.5-0.1-0.6V7.2c0-0.4-0.1-0.8-0.3-1.1
	c-0.2-0.3-0.5-0.5-1-0.5c-0.2,0-0.5,0-0.6,0.1c-0.2,0.1-0.4,0.2-0.6,0.4l-0.4-0.5c0.3-0.3,0.7-0.6,1.1-0.8c0.4-0.3,0.9-0.5,1.4-0.7
	c0.5-0.2,1-0.4,1.6-0.5c0.6-0.1,1.1-0.2,1.8-0.2c1,0,1.7,0.1,2.2,0.4s0.9,0.6,1.2,0.9c0.2,0.4,0.4,0.8,0.5,1.2
	c0.1,0.4,0.1,0.8,0.1,1.1V20.8z"/>
<path class="st0" d="M87.9,27.5c0,0.5,0.1,1,0.2,1.5c0.1,0.6,0.3,1.1,0.6,1.7c0.3,0.6,0.6,1.1,1,1.6c0.4,0.5,0.8,1,1.3,1.4
	s1.1,0.7,1.7,0.9c0.6,0.2,1.3,0.4,2,0.4c0.5,0,1-0.1,1.4-0.2c0.4-0.1,0.9-0.3,1.2-0.5c0.4-0.2,0.7-0.4,1.1-0.7
	c0.4-0.3,0.7-0.6,1.1-0.9l0.6,0.5c-0.3,0.5-0.8,1-1.3,1.5s-1.2,1.1-1.9,1.5c-0.7,0.5-1.6,0.9-2.6,1.2s-2.1,0.5-3.4,0.5
	s-2.5-0.2-3.7-0.7c-1.2-0.5-2.3-1.2-3.2-2.1c-0.9-0.9-1.7-2.1-2.3-3.5s-0.8-3-0.8-4.8c0-1.3,0.2-2.6,0.5-3.7c0.3-1.1,0.8-2.1,1.4-3
	c0.6-0.9,1.3-1.7,2-2.4c0.8-0.7,1.6-1.2,2.4-1.7c0.9-0.4,1.7-0.8,2.6-1c0.9-0.2,1.7-0.3,2.6-0.3c1.1,0,2,0.1,2.8,0.4
	c0.8,0.2,1.5,0.6,2,0.9c0.5,0.4,0.9,0.9,1.2,1.4c0.3,0.5,0.4,1.1,0.4,1.6c0,0.7-0.2,1.3-0.6,1.9c-0.4,0.6-0.9,1-1.6,1.4L87.9,27.5z
	 M92.4,23.1c0.2-0.1,0.3-0.2,0.5-0.3c0.1-0.1,0.2-0.2,0.3-0.4c0.1-0.2,0.1-0.3,0.2-0.6c0-0.2,0.1-0.5,0.1-0.8c0-0.4,0-0.8-0.1-1.2
	c-0.1-0.4-0.2-0.9-0.4-1.3c-0.2-0.4-0.4-0.7-0.7-1S91.4,17,91,17c-0.5,0-1,0.2-1.4,0.5c-0.4,0.3-0.7,0.7-0.9,1.2s-0.4,1.1-0.6,1.7
	c-0.1,0.6-0.2,1.3-0.3,1.9c-0.1,0.6-0.1,1.3-0.1,1.9s0,1.1,0,1.5L92.4,23.1z"/>
<path class="st0" d="M112.4,40.8c0.6,0,1.2-0.1,1.7-0.3s1.1-0.6,1.5-1.1c0.4-0.5,0.8-1.1,1.1-1.9c0.3-0.8,0.4-1.8,0.4-2.9
	c0-1.2-0.3-2.4-0.9-3.6s-1.4-2.3-2.3-3.4c-0.9-1.1-1.9-2.2-3-3.3s-2.1-2.2-3-3.4c-0.9-1.2-1.7-2.3-2.3-3.6c-0.6-1.2-0.9-2.5-0.9-3.8
	c0-1.3,0.2-2.5,0.7-3.6c0.5-1.1,1.2-2,2-2.8c0.8-0.8,1.8-1.3,3-1.8c1.1-0.4,2.3-0.6,3.6-0.6c1.4,0,2.6,0.1,3.6,0.4s2,0.7,2.7,1.2
	c0.7,0.5,1.3,1.1,1.7,1.7c0.4,0.7,0.6,1.4,0.6,2.1c0,0.4-0.1,0.7-0.2,1.1c-0.1,0.4-0.3,0.7-0.5,1c-0.2,0.3-0.5,0.6-0.8,0.8
	s-0.7,0.3-1.2,0.3c-0.5,0-0.9-0.2-1.2-0.5c-0.3-0.3-0.4-0.7-0.6-1.2s-0.2-1-0.3-1.6c-0.1-0.6-0.2-1.1-0.4-1.6s-0.5-0.9-0.9-1.2
	c-0.4-0.3-0.9-0.5-1.7-0.5c-0.4,0-0.8,0.1-1.2,0.3s-0.7,0.4-1.1,0.8c-0.3,0.4-0.6,0.8-0.8,1.4c-0.2,0.6-0.3,1.2-0.3,2
	c0,0.9,0.2,1.7,0.5,2.6c0.4,0.8,0.9,1.7,1.5,2.5c0.6,0.8,1.3,1.6,2.1,2.4c0.8,0.8,1.6,1.6,2.4,2.5c0.8,0.8,1.6,1.7,2.4,2.6
	c0.8,0.9,1.5,1.8,2.1,2.7s1.1,1.9,1.5,3s0.6,2.1,0.6,3.2c0,1.7-0.3,3.1-1,4.4c-0.6,1.3-1.5,2.4-2.6,3.3c-1.1,0.9-2.4,1.6-3.8,2
	c-1.5,0.5-3,0.7-4.7,0.7c-1.5,0-2.8-0.2-4-0.6c-1.2-0.4-2.1-0.9-2.9-1.5s-1.4-1.3-1.8-2.1s-0.6-1.6-0.6-2.4c0-0.4,0.1-0.7,0.2-1.1
	c0.1-0.4,0.3-0.8,0.5-1.1c0.2-0.3,0.5-0.6,0.8-0.8s0.7-0.3,1.1-0.3c0.4,0,0.8,0.1,1.1,0.3c0.3,0.2,0.5,0.5,0.6,0.9
	c0.2,0.4,0.3,0.8,0.4,1.3c0.1,0.5,0.2,0.9,0.3,1.4c0.1,0.5,0.3,1,0.4,1.4s0.4,0.9,0.7,1.3c0.3,0.4,0.7,0.7,1.2,0.9
	C111.1,40.7,111.7,40.8,112.4,40.8z"/>
<path class="st0" d="M133.9,16.7v16.3c0,0.8,0.1,1.3,0.4,1.6c0.3,0.3,0.7,0.5,1.2,0.5c0.4,0,0.7-0.1,1.1-0.3
	c0.3-0.2,0.6-0.5,0.8-0.7c0.3-0.3,0.5-0.7,0.7-1.1l0.7,0.3c-0.2,0.5-0.5,1-0.8,1.5c-0.3,0.6-0.7,1.1-1.2,1.6
	c-0.5,0.5-1.1,0.9-1.9,1.2c-0.8,0.3-1.7,0.5-2.9,0.5c-0.6,0-1.3-0.1-1.9-0.3c-0.6-0.2-1.1-0.5-1.6-0.9c-0.5-0.4-0.8-0.9-1.1-1.5
	c-0.3-0.6-0.4-1.4-0.4-2.2V16.7h-2.5v-1.6c0.4,0,1-0.1,1.7-0.3c0.7-0.2,1.5-0.6,2.3-1.1c0.8-0.5,1.5-1.2,2.1-2
	c0.7-0.8,1.1-1.9,1.4-3.1h1.8v6.5h3.6c1.2,0,1.8-0.2,1.8-0.6c0-0.1-0.1-0.2-0.2-0.3s-0.3-0.1-0.5-0.2s-0.3-0.2-0.5-0.3
	c-0.1-0.1-0.2-0.4-0.2-0.7c0-0.4,0.1-0.7,0.4-1c0.3-0.2,0.6-0.4,1-0.4c0.3,0,0.5,0.1,0.7,0.2c0.2,0.1,0.4,0.3,0.5,0.4
	s0.2,0.4,0.3,0.6c0.1,0.2,0.1,0.5,0.1,0.7c0,1-0.3,1.7-0.8,2.3c-0.6,0.6-1.4,0.8-2.7,0.8H133.9z"/>
<path class="st0" d="M149,19.4c0.6-0.9,1.2-1.6,1.8-2.3c0.3-0.3,0.6-0.6,0.9-0.9c0.3-0.3,0.6-0.5,1-0.7s0.7-0.4,1-0.5
	c0.4-0.1,0.7-0.2,1.1-0.2c0.7,0,1.3,0.2,1.8,0.7c0.4,0.4,0.6,1.1,0.6,1.9c0,0.5,0,1-0.1,1.4c-0.1,0.5-0.2,1-0.5,1.7h-0.6
	c-0.1-0.5-0.3-0.8-0.6-1.1c-0.3-0.3-0.8-0.5-1.4-0.5c-0.5,0-0.9,0.1-1.3,0.3c-0.4,0.2-0.9,0.4-1.3,0.6c-0.4,0.2-0.8,0.5-1.2,0.8
	c-0.4,0.3-0.7,0.6-1,0.8v14.3c0,0.2,0,0.4-0.1,0.7c-0.1,0.3-0.2,0.5-0.4,0.7c-0.2,0.2-0.6,0.4-1,0.6c-0.4,0.2-1.1,0.3-1.8,0.3
	c-0.8,0-1.4-0.1-1.8-0.3c-0.4-0.2-0.8-0.4-1-0.6c-0.2-0.2-0.4-0.5-0.4-0.8c-0.1-0.3-0.1-0.5-0.1-0.6v-17c0-0.4-0.1-0.8-0.3-1.1
	s-0.5-0.5-1-0.5c-0.2,0-0.5,0-0.6,0.1c-0.2,0.1-0.4,0.2-0.6,0.4l-0.5-0.6c0.3-0.3,0.7-0.6,1.1-0.8c0.4-0.3,0.9-0.5,1.4-0.7
	c0.5-0.2,1-0.4,1.6-0.5c0.6-0.1,1.1-0.2,1.8-0.2c0.6,0,1.2,0.1,1.6,0.3c0.4,0.2,0.8,0.4,1.1,0.7c0.3,0.3,0.5,0.6,0.7,0.9
	s0.3,0.7,0.4,1c0.1,0.3,0.1,0.7,0.1,1C149,18.9,149,19.2,149,19.4z"/>
<path class="st0" d="M167.5,35.6c0,0.2,0,0.4-0.1,0.7c-0.1,0.3-0.2,0.5-0.5,0.8s-0.6,0.4-1,0.6c-0.5,0.2-1.1,0.3-1.8,0.3
	c-0.8,0-1.4-0.1-1.8-0.3s-0.8-0.4-1-0.6c-0.2-0.2-0.4-0.5-0.4-0.8c-0.1-0.3-0.1-0.5-0.1-0.6v-17c0-0.4-0.1-0.8-0.3-1.1
	s-0.5-0.5-1-0.5c-0.2,0-0.5,0-0.6,0.1c-0.2,0.1-0.4,0.2-0.6,0.4l-0.5-0.6c0.3-0.3,0.7-0.6,1.1-0.8c0.4-0.3,0.9-0.5,1.4-0.7
	c0.5-0.2,1-0.4,1.6-0.5c0.6-0.1,1.1-0.2,1.8-0.2c1,0,1.7,0.1,2.2,0.4c0.5,0.3,0.9,0.6,1.2,0.9c0.2,0.4,0.4,0.8,0.5,1.2
	c0.1,0.4,0.1,0.8,0.1,1.1V35.6z M160.1,9.8c0-0.4,0.1-0.8,0.3-1.2c0.2-0.4,0.4-0.7,0.8-1c0.3-0.3,0.7-0.5,1.1-0.7
	c0.4-0.2,0.9-0.2,1.4-0.2c0.5,0,1,0.1,1.4,0.2s0.8,0.4,1.1,0.7c0.3,0.3,0.6,0.6,0.8,1c0.2,0.4,0.3,0.8,0.3,1.2
	c0,0.4-0.1,0.8-0.3,1.2c-0.2,0.4-0.4,0.7-0.8,1s-0.7,0.5-1.1,0.6s-0.9,0.2-1.4,0.2c-0.5,0-1-0.1-1.4-0.2c-0.4-0.2-0.8-0.4-1.1-0.6
	c-0.3-0.3-0.6-0.6-0.8-1C160.2,10.6,160.1,10.2,160.1,9.8z"/>
<path class="st0" d="M184.5,26.7c0-1.8-0.1-3.3-0.3-4.4c-0.2-1.1-0.4-2-0.7-2.5c-0.3-0.6-0.6-1-0.9-1.1c-0.3-0.2-0.7-0.3-1-0.3
	c-0.4,0-0.8,0.1-1.1,0.3s-0.6,0.5-0.9,0.8s-0.4,0.6-0.6,0.9c-0.2,0.3-0.3,0.5-0.4,0.7v14.7c0,0.2,0,0.4-0.1,0.7s-0.2,0.5-0.4,0.8
	s-0.6,0.4-1,0.6c-0.4,0.2-1.1,0.3-1.8,0.3c-0.8,0-1.4-0.1-1.8-0.3c-0.4-0.2-0.8-0.4-1-0.6c-0.2-0.2-0.4-0.5-0.4-0.8
	c-0.1-0.3-0.1-0.5-0.1-0.6v-17c0-0.4-0.1-0.8-0.3-1.1s-0.5-0.5-1-0.5c-0.2,0-0.5,0-0.6,0.1c-0.2,0.1-0.4,0.2-0.6,0.4l-0.5-0.6
	c0.3-0.3,0.7-0.6,1.1-0.8c0.4-0.3,0.9-0.5,1.4-0.7c0.5-0.2,1-0.4,1.6-0.5c0.6-0.1,1.1-0.2,1.8-0.2c1,0,1.7,0.2,2.2,0.5
	s0.9,0.7,1.2,1.1c0.2,0.4,0.4,0.9,0.5,1.4s0.1,0.9,0.1,1.2c0.5-0.8,1.2-1.5,1.8-2.1c0.3-0.3,0.6-0.5,0.9-0.8
	c0.3-0.2,0.7-0.5,1.1-0.7c0.4-0.2,0.8-0.4,1.2-0.5c0.4-0.1,0.9-0.2,1.3-0.2c1,0,1.9,0.2,2.7,0.6s1.4,1,1.9,1.9
	c0.5,0.9,0.9,2.1,1.2,3.6c0.3,1.5,0.4,3.3,0.4,5.5c0,2.1-0.2,4-0.6,5.5s-0.9,2.9-1.5,4c-0.6,1.1-1.3,2-2.1,2.7
	c-0.8,0.7-1.6,1.2-2.4,1.6c-0.8,0.4-1.6,0.7-2.3,0.8s-1.4,0.2-1.9,0.3l-0.2-0.9c0.4-0.1,0.8-0.3,1.2-0.5s0.7-0.5,1-1s0.6-1,0.8-1.6
	c0.2-0.7,0.4-1.5,0.6-2.5s0.3-2.1,0.4-3.5C184.5,30,184.5,28.5,184.5,26.7z"/>
<path class="st0" d="M192.6,23.8c0-1.5,0.3-2.8,0.8-3.9c0.5-1.1,1.2-2.1,2.1-2.8c0.9-0.8,1.9-1.3,3.1-1.7c1.2-0.4,2.4-0.6,3.7-0.6
	c1.3,0,2.5,0.2,3.6,0.5c1.1,0.3,2.2,0.9,3,1.6c0.3-0.4,0.5-0.9,0.7-1.3c0.2-0.5,0.3-0.9,0.3-1.4c0-0.6-0.2-1.1-0.5-1.5
	c-0.3-0.4-0.8-0.6-1.3-0.6v-0.6c0.3-0.1,0.6-0.2,0.9-0.3c0.2-0.1,0.5-0.1,0.7-0.2c0.2,0,0.4-0.1,0.6-0.1c0.2,0,0.4,0,0.7,0
	c0.7,0,1.2,0.2,1.6,0.6c0.4,0.4,0.6,1,0.6,1.8c0,0.4-0.1,0.9-0.3,1.3c-0.2,0.4-0.5,0.8-0.8,1.2c-0.3,0.4-0.6,0.8-1,1.1
	c-0.4,0.4-0.7,0.7-1.1,0.9c0.6,0.7,1.1,1.5,1.4,2.5c0.3,0.9,0.5,2,0.5,3.2c0,1.5-0.3,2.8-0.8,4c-0.5,1.2-1.2,2.1-2.1,2.9
	c-0.9,0.8-1.9,1.4-3.1,1.8c-1.2,0.4-2.4,0.6-3.7,0.6c-0.7,0-1.5-0.1-2.2-0.2c-0.7-0.1-1.4-0.3-2-0.6c-0.2,0.2-0.4,0.4-0.6,0.7
	c-0.2,0.3-0.3,0.6-0.3,0.9c0,0.5,0.2,0.9,0.7,1.2c0.5,0.3,1.1,0.5,1.9,0.6c0.8,0.1,1.7,0.2,2.6,0.2c1,0,2,0.1,3,0.1
	c1,0.1,2,0.2,3,0.4c1,0.2,1.9,0.5,2.6,0.9c0.8,0.4,1.4,1,1.9,1.7c0.5,0.7,0.7,1.7,0.7,2.8c0,0.8-0.2,1.6-0.5,2.3
	c-0.4,0.7-0.8,1.3-1.4,1.8c-0.6,0.5-1.3,0.9-2.1,1.3c-0.8,0.4-1.6,0.7-2.5,0.9c-0.9,0.2-1.8,0.4-2.7,0.5c-0.9,0.1-1.8,0.2-2.6,0.2
	c-1.5,0-2.8-0.1-4-0.2s-2.2-0.4-3-0.7c-0.8-0.3-1.5-0.7-1.9-1.3s-0.7-1.1-0.7-1.8c0-0.5,0.1-1,0.4-1.4c0.2-0.4,0.5-0.8,0.9-1.2
	s0.8-0.7,1.3-1s1-0.6,1.5-0.8c-0.7-0.3-1.3-0.8-1.8-1.4c-0.5-0.6-0.7-1.4-0.7-2.5c0-0.5,0.1-1,0.3-1.5c0.2-0.5,0.4-0.9,0.7-1.3
	c0.3-0.4,0.6-0.7,1-1.1c0.4-0.3,0.7-0.6,1-0.8c-0.6-0.4-1.2-0.8-1.7-1.3c-0.5-0.5-0.9-1.1-1.3-1.7c-0.4-0.6-0.6-1.3-0.8-2.1
	S192.6,24.7,192.6,23.8z M208.5,43.3c0-0.5-0.2-0.9-0.5-1.2c-0.4-0.3-0.8-0.5-1.4-0.7c-0.6-0.2-1.3-0.3-2-0.4s-1.5-0.2-2.3-0.2
	c-0.8-0.1-1.5-0.1-2.3-0.1c-0.7,0-1.4-0.1-1.9-0.2c-0.3,0.2-0.6,0.5-0.9,0.7c-0.3,0.3-0.5,0.5-0.7,0.8c-0.2,0.3-0.4,0.6-0.5,0.9
	s-0.2,0.6-0.2,1c0,0.6,0.2,1,0.5,1.4c0.3,0.4,0.8,0.7,1.3,0.9c0.6,0.2,1.2,0.4,1.9,0.5c0.7,0.1,1.5,0.1,2.3,0.1c1.1,0,2-0.1,2.9-0.3
	c0.9-0.2,1.6-0.4,2.2-0.7c0.6-0.3,1-0.7,1.3-1.1C208.4,44.2,208.5,43.8,208.5,43.3z M205.2,23.6c0-0.9,0-1.7-0.1-2.5
	c-0.1-0.8-0.2-1.5-0.5-2.2c-0.2-0.6-0.5-1.1-0.9-1.5c-0.4-0.4-0.9-0.6-1.5-0.6s-1.1,0.2-1.5,0.6c-0.4,0.4-0.7,0.9-0.9,1.6
	c-0.2,0.7-0.4,1.4-0.5,2.2c-0.1,0.8-0.1,1.7-0.1,2.5c0,0.9,0,1.7,0.1,2.6c0.1,0.8,0.2,1.6,0.5,2.2c0.2,0.7,0.5,1.2,0.9,1.6
	c0.4,0.4,0.9,0.6,1.5,0.6s1.1-0.2,1.5-0.6c0.4-0.4,0.7-1,0.9-1.7s0.4-1.4,0.5-2.3C205.1,25.3,205.2,24.5,205.2,23.6z"/>
<path class="st0" d="M221.7,16.5c-0.3,0-0.7,0-1,0.1c-0.3,0.1-0.6,0.2-0.8,0.4c-0.2,0.2-0.4,0.4-0.6,0.7s-0.2,0.7-0.2,1.1
	c0,0.6,0.2,1.1,0.6,1.7c0.4,0.6,0.9,1.2,1.6,1.8c0.6,0.6,1.3,1.2,2,1.9c0.7,0.7,1.4,1.3,2,2.1s1.1,1.5,1.6,2.3s0.6,1.7,0.6,2.6
	c0,1.1-0.2,2-0.5,2.8c-0.4,0.8-0.9,1.5-1.5,2.1s-1.5,1-2.4,1.3c-0.9,0.3-2,0.5-3.2,0.5c-1,0-1.9-0.1-2.8-0.4
	c-0.8-0.3-1.6-0.6-2.2-1.1c-0.6-0.4-1.2-0.9-1.6-1.3s-0.8-0.9-1.1-1.3l0.8-0.6c0.2,0.2,0.4,0.5,0.7,0.7c0.3,0.3,0.6,0.5,1,0.7
	c0.4,0.2,0.7,0.4,1.2,0.5c0.4,0.1,0.8,0.2,1.3,0.2c1.1,0,1.9-0.3,2.6-0.8c0.7-0.5,1-1.3,1-2.3c0-0.6-0.2-1.1-0.6-1.7
	c-0.4-0.6-0.8-1.2-1.4-1.8c-0.6-0.6-1.2-1.3-1.8-2c-0.6-0.7-1.2-1.4-1.8-2.1c-0.6-0.7-1-1.5-1.4-2.2c-0.4-0.8-0.5-1.6-0.5-2.4
	c0-0.9,0.2-1.7,0.6-2.4c0.4-0.7,0.9-1.3,1.5-1.7c0.6-0.5,1.3-0.8,2.1-1c0.8-0.2,1.6-0.3,2.5-0.3c1,0,1.9,0.1,2.7,0.3
	c0.8,0.2,1.5,0.4,2.1,0.8c0.6,0.4,1,0.8,1.3,1.4s0.5,1.2,0.5,1.9c0,0.6-0.2,1-0.6,1.5c-0.4,0.4-0.9,0.6-1.5,0.6
	c-0.6,0-1.1-0.1-1.4-0.4c-0.3-0.3-0.5-0.6-0.5-1.1c0-0.3,0.1-0.6,0.2-0.7c0.2-0.2,0.3-0.3,0.5-0.4c0.2-0.1,0.4-0.2,0.5-0.3
	c0.2-0.1,0.2-0.2,0.2-0.3c0-0.4-0.2-0.7-0.7-1S222.4,16.5,221.7,16.5z"/>
</svg>
